<svg xmlns="http://www.w3.org/2000/svg" viewBox="-1356.896 -19917.895 43.392 43.391"><defs><style>.a{fill:#256a37;}</style></defs><g transform="translate(-1392 -19953)"><path class="a" d="M183.5,165.054A18.442,18.442,0,1,1,165.054,183.5,18.454,18.454,0,0,1,183.5,165.054m0-3.254a21.7,21.7,0,1,0,21.7,21.7,21.7,21.7,0,0,0-21.7-21.7Z" transform="translate(-126.696 -126.696)"/><path class="a" d="M219.92,281.43a12.464,12.464,0,0,1-11.477-7.594,1.624,1.624,0,1,1,2.994-1.258,9.192,9.192,0,0,0,17.14-.521,1.633,1.633,0,1,1,3.081,1.085A12.458,12.458,0,0,1,219.92,281.43Z" transform="translate(-163.12 -212.177)"/><circle class="a" cx="2.365" cy="2.365" r="2.365" transform="translate(46.82 47.102)"/><circle class="a" cx="2.365" cy="2.365" r="2.365" transform="translate(62.05 46.82)"/></g></svg>