<svg xmlns="http://www.w3.org/2000/svg" viewBox="0 0 12 9.75"><title>icon_twitter</title><path fill="white" d="M0,8.64a4.91,4.91,0,0,0,.59,0A4.82,4.82,0,0,0,3.64,7.62a2.37,2.37,0,0,1-1.43-.49,2.4,2.4,0,0,1-.87-1.22,2.48,2.48,0,0,0,.46,0,2.36,2.36,0,0,0,.64-.09A2.43,2.43,0,0,1,1,5,2.37,2.37,0,0,1,.48,3.46v0a2.46,2.46,0,0,0,1.12.3,2.44,2.44,0,0,1-.8-.87A2.4,2.4,0,0,1,.5,1.69,2.43,2.43,0,0,1,.84.45,7,7,0,0,0,3.08,2.26,6.86,6.86,0,0,0,5.91,3a2.54,2.54,0,0,1-.06-.56A2.37,2.37,0,0,1,6.57.72,2.37,2.37,0,0,1,8.31,0a2.37,2.37,0,0,1,1.8.77,4.92,4.92,0,0,0,1.56-.6,2.37,2.37,0,0,1-1.08,1.37A5,5,0,0,0,12,1.15a4.82,4.82,0,0,1-1.23,1.27q0,.21,0,.32a6.85,6.85,0,0,1-.15,1.41,7.13,7.13,0,0,1-.45,1.4,8,8,0,0,1-.73,1.31A6.35,6.35,0,0,1,8.43,8a7.17,7.17,0,0,1-1.29.91,6.38,6.38,0,0,1-1.56.6,7.43,7.43,0,0,1-1.81.22A6.86,6.86,0,0,1,0,8.64Z"/></svg>