<svg xmlns="http://www.w3.org/2000/svg" viewBox="-1381.616 -17515 103.832 44.785"><defs><style>.a{fill:#256a37;}</style></defs><g transform="translate(-1381.616 -17514.9)"><path class="a" d="M42.771,69.242A13.971,13.971,0,1,1,56.742,55.271,13.987,13.987,0,0,1,42.771,69.242Zm0-24.266A10.32,10.32,0,1,0,53.091,55.3,10.325,10.325,0,0,0,42.771,44.975Z" transform="translate(-21.79 -31.323)"/><path class="a" d="M158.832,120.269H107.5l.779-2.385a26.167,26.167,0,0,1,49.774,0Zm-46.172-3.651h40.988a22.532,22.532,0,0,0-40.988,0Z" transform="translate(-81.335 -75.585)"/><path class="a" d="M169.471,27.842a13.971,13.971,0,1,1,13.971-13.971A13.987,13.987,0,0,1,169.471,27.842Zm0-24.266a10.32,10.32,0,1,0,10.32,10.32A10.325,10.325,0,0,0,169.471,3.575Z" transform="translate(-117.652 0)"/><path class="a" d="M295.371,69.242a13.971,13.971,0,1,1,13.971-13.971A13.987,13.987,0,0,1,295.371,69.242Zm0-24.266a10.32,10.32,0,1,0,10.32,10.32A10.325,10.325,0,0,0,295.371,44.975Z" transform="translate(-212.909 -31.323)"/><path class="a" d="M41.961,153.409H0l3.578-3.188a26.183,26.183,0,0,1,34.805,0Z" transform="translate(0 -108.724)"/><path class="a" d="M293.664,151.593H250.9l3.286-3.14a26.171,26.171,0,0,1,36.168,0Z" transform="translate(-189.832 -106.908)"/></g></svg>