<svg xmlns="http://www.w3.org/2000/svg" viewBox="0 0 11.99 12"><title>icon_instagram</title><path fill="white" d="M0,8.33Q0,6.77,0,6V1.34A1.28,1.28,0,0,1,.32.48,1.35,1.35,0,0,1,1.14,0l.24,0H10.6a1.4,1.4,0,0,1,.93.34,1.27,1.27,0,0,1,.45.85s0,0,0,.06v9.38A1.38,1.38,0,0,1,10.79,12H1.36a1.36,1.36,0,0,1-.89-.32,1.23,1.23,0,0,1-.45-.8,1.55,1.55,0,0,1,0-.22Q0,9.88,0,8.33Zm1.47,2.22a.5.5,0,0,0,.35.14h8.3a.45.45,0,0,0,.34-.14.49.49,0,0,0,.13-.35q0-.84,0-2.53t0-2.53V5h-1a4.24,4.24,0,0,1,.12,1A3.57,3.57,0,0,1,9.44,7.3,3.61,3.61,0,0,1,8,9.06a3.66,3.66,0,0,1-1.93.62H6a3.69,3.69,0,0,1-3.26-2A3.67,3.67,0,0,1,2.31,6a4.09,4.09,0,0,1,.12-1H1.33V10.2A.46.46,0,0,0,1.47,10.55ZM4.36,7.69A2.22,2.22,0,0,0,6,8.37a2.21,2.21,0,0,0,1.63-.68A2.27,2.27,0,0,0,8.3,6a2.27,2.27,0,0,0-.67-1.66A2.21,2.21,0,0,0,6,3.69a2.21,2.21,0,0,0-1.63.69A2.26,2.26,0,0,0,3.69,6,2.27,2.27,0,0,0,4.36,7.69ZM8.44,3.56a.45.45,0,0,0,.34.14h1.37a.44.44,0,0,0,.33-.14.47.47,0,0,0,.13-.34V1.8a.47.47,0,0,0-.13-.34.45.45,0,0,0-.34-.14H8.78a.45.45,0,0,0-.33.14.47.47,0,0,0-.13.34V3.21A.47.47,0,0,0,8.44,3.56Z"/></svg>