<svg xmlns="http://www.w3.org/2000/svg" viewBox="-1385.904 -18194 110.707 45.07"><defs><style>.a{fill:#256a37;}.b{fill:none;}</style></defs><g transform="translate(-1385.904 -18193.9)"><g transform="translate(35.191 -0.1)"><path class="a" d="M37.793,53.53A37.732,37.732,0,0,1,0,15.737,2.656,2.656,0,0,1,2.637,13.1h0a2.656,2.656,0,0,1,2.637,2.637A32.537,32.537,0,0,0,54.07,43.9a2.629,2.629,0,1,1,2.6,4.57A37.547,37.547,0,0,1,37.793,53.53Z" transform="translate(-35.191 -8.459)"/><path class="a" d="M170.174,53.595a38.1,38.1,0,0,1-18.914-5.027,2.629,2.629,0,1,1,2.6-4.57,32.537,32.537,0,0,0,48.8-28.16,2.656,2.656,0,0,1,2.637-2.637h0a2.656,2.656,0,0,1,2.637,2.637,37.857,37.857,0,0,1-18.914,32.731A37.645,37.645,0,0,1,170.174,53.595Z" transform="translate(-132.416 -8.524)"/><circle class="b" cx="17.543" cy="17.543" r="17.543" transform="translate(2.637 2.672)"/><path class="a" d="M120.28,40.259a20.18,20.18,0,1,1,20.18-20.18A20.2,20.2,0,0,1,120.28,40.259Zm0-35.051a14.906,14.906,0,1,0,14.906,14.906A14.914,14.914,0,0,0,120.28,5.209Z" transform="translate(-100.1 0.1)"/></g></g></svg>