<svg xmlns="http://www.w3.org/2000/svg" viewBox="-1356.883 -16710.824 42.552 48.049"><defs><style>.a{fill:#256a37;}</style></defs><g transform="translate(-1356.893 -16710.824)"><path class="a" d="M58.64,25.864l-.512-.163a13.376,13.376,0,0,1,0-25.561L58.64,0l.512.163a13.376,13.376,0,0,1,0,25.561Zm0-22.185a9.88,9.88,0,0,0,0,18.531,9.88,9.88,0,0,0,0-18.531Z" transform="translate(-37.355)"/><path class="a" d="M13.394,55.387A13.4,13.4,0,0,1,.357,39.021l.116-.512.4-.372a13.285,13.285,0,0,1,15.784-1.793,13.261,13.261,0,0,1,6.332,14.55l-.116.512-.4.372A13.176,13.176,0,0,1,13.394,55.387ZM3.64,40.348a9.874,9.874,0,0,0,16.04,9.265A9.874,9.874,0,0,0,3.64,40.348Z" transform="translate(0 -26.497)"/><path class="a" d="M9.949,103.163A13.259,13.259,0,0,1,.87,99.578l-.4-.372-.116-.512A13.352,13.352,0,0,1,22.473,85.936l.4.372.116.512a13.293,13.293,0,0,1-6.332,14.55A13.475,13.475,0,0,1,9.949,103.163Zm-6.309-5.8A9.874,9.874,0,0,0,19.679,88.1,9.874,9.874,0,0,0,3.64,97.367Z" transform="translate(0 -63.169)"/><path class="a" d="M58.64,121.087l-.512-.163a13.376,13.376,0,0,1,0-25.561l.512-.163.512.163a13.376,13.376,0,0,1,0,25.561Zm0-22.185a9.88,9.88,0,0,0,0,18.531,9.88,9.88,0,0,0,0-18.531Z" transform="translate(-37.355 -73.038)"/><path class="a" d="M95.988,103.087A13.4,13.4,0,0,1,82.951,86.721l.116-.512.4-.372a13.352,13.352,0,0,1,22.116,12.757l-.116.512-.4.372A13.218,13.218,0,0,1,95.988,103.087ZM86.234,88.048a9.874,9.874,0,0,0,16.04,9.265,9.874,9.874,0,0,0-16.04-9.265Z" transform="translate(-63.365 -63.092)"/><path class="a" d="M92.549,55.463a13.259,13.259,0,0,1-9.079-3.585l-.4-.372-.116-.512a13.352,13.352,0,0,1,22.116-12.757l.4.372.116.512a13.293,13.293,0,0,1-6.332,14.55A13.475,13.475,0,0,1,92.549,55.463ZM86.24,49.69a9.874,9.874,0,0,0,16.04-9.265A9.874,9.874,0,0,0,86.24,49.69Z" transform="translate(-63.371 -26.573)"/></g></svg>