<svg xmlns="http://www.w3.org/2000/svg" viewBox="-1349.388 -22389.613 40.334 45.602"><defs><style>.a{fill:none;stroke:#256a37;stroke-miterlimit:10;stroke-width:4px;}</style></defs><g transform="translate(-1384.557 -22447.648)"><path class="a" d="M206.767,170.221a10.535,10.535,0,0,1,10.525,9.969v.124l.021.124a2.118,2.118,0,0,1,.021.35,35.095,35.095,0,0,1-18.167,30.731A35.095,35.095,0,0,1,181,180.787a2.9,2.9,0,0,1,.021-.412l.021-.144v-.144a10.534,10.534,0,0,1,15.8-8.466l2.307,1.339,2.307-1.339a11.012,11.012,0,0,1,5.314-1.4" transform="translate(-143.831 -110.164)"/></g></svg>