<svg xmlns="http://www.w3.org/2000/svg" viewBox="-1364.405 -19203 69.811 44.924"><defs><style>.a{fill:#256a37;}.b{fill:#f7f6f2;}</style></defs><g transform="translate(-1364.405 -19203)"><g transform="translate(0 16.505)"><g transform="translate(0 0)"><path class="a" d="M23.824,102.892A23.786,23.786,0,0,1,0,79.09v-.953l.842-.488A23.835,23.835,0,0,1,36.59,98.283v.953l-.842.488A23.786,23.786,0,0,1,23.824,102.892ZM3.346,80.065a20.518,20.518,0,0,0,29.9,17.242,20.518,20.518,0,0,0-29.9-17.242Z" transform="translate(0 -74.475)"/></g><g transform="translate(33.221)"><path class="a" d="M162.665,102.892a24.015,24.015,0,0,1-11.923-3.169l-.842-.488v-.953A23.835,23.835,0,0,1,185.648,77.65l.842.488v.953a23.786,23.786,0,0,1-23.824,23.8Zm-9.4-5.585a20.518,20.518,0,0,0,29.9-17.242,20.518,20.518,0,0,0-29.9,17.242Z" transform="translate(-149.9 -74.475)"/></g></g><g transform="translate(22.162 0)"><path class="b" d="M118.581,8.7a22.161,22.161,0,0,0,0,38.385,22.161,22.161,0,0,0,0-38.385Z" transform="translate(-105.838 -6.772)"/><path class="a" d="M112.743,42.241l-.842-.488a23.836,23.836,0,0,1,0-41.266L112.743,0l.842.488a23.836,23.836,0,0,1,0,41.266Zm0-38.363a20.491,20.491,0,0,0,0,34.484,20.491,20.491,0,0,0,0-34.484Z" transform="translate(-100 0)"/></g></g></svg>