<svg xmlns="http://www.w3.org/2000/svg" viewBox="-7872.582 -22998.375 180.905 180.344">
  <defs>
    <style>
      .cls-1 {
        fill: #313639;
      }
    </style>
  </defs>
  <g id="Group_968" data-name="Group 968" transform="translate(-7872.682 -22998.451)">
    <path id="Path_2664" data-name="Path 2664" class="cls-1" d="M24.873,41.066a20.8,20.8,0,0,1,.918,5.815l-1.836.306a20.576,20.576,0,0,0-.918-5.509c-1.224-3.979-3.367-6.121-6.427-5.2a4.246,4.246,0,0,0-2.449,2.142c-1.224,2.449-.612,5.815-1.224,8.57a5.909,5.909,0,0,1-3.673,3.979C5.591,52.39,2.53,49.942,1.612,46.575A11.95,11.95,0,0,1,1,42.29l1.836-.306a9.1,9.1,0,0,0,.612,3.673c.918,2.755,2.755,4.285,5.509,3.673,1.836-.612,2.449-1.836,2.755-3.673.306-2.142,0-4.9.612-7.04A5.748,5.748,0,0,1,16.3,34.638C20.588,33.108,23.649,36.781,24.873,41.066Z" transform="translate(1.855 70.49)"/>
    <path id="Path_2665" data-name="Path 2665" class="cls-1" d="M23.361,35.682c0,5.815-3.673,9.182-11.631,9.182S.1,41.5.1,35.682C.1,30.173,3.773,26.5,11.731,26.5,19.688,26.806,23.361,30.173,23.361,35.682Zm-21.731,0c0,4.285,2.755,7.04,9.794,7.04,7.346,0,9.794-2.755,9.794-7.04,0-3.979-2.755-7.04-9.794-6.733C4.385,28.949,1.63,31.7,1.63,35.682Z" transform="translate(0 54.449)"/>
    <path id="Path_2666" data-name="Path 2666" class="cls-1" d="M27.91,18.924l-5.2,11.018L2.2,20.455l.918-1.836,18.976,8.57L26.379,17.7Z" transform="translate(4.327 36.315)"/>
    <path id="Path_2667" data-name="Path 2667" class="cls-1" d="M31.031,21.385,24.6,17.1,17.87,23.222l3.367,6.733-1.53,1.224L9.3,10.673,12.973,7,32.561,19.855ZM12.973,9.449l-1.53,1.53,5.509,10.712,6.121-5.509Z" transform="translate(18.958 14.266)"/>
    <path id="Path_2668" data-name="Path 2668" class="cls-1" d="M28.013,25.761A19.454,19.454,0,0,1,22.5,27.6l-.612-1.836a19.588,19.588,0,0,0,5.2-1.53c3.673-1.836,5.509-4.285,4.285-7.04a4.094,4.094,0,0,0-2.449-2.142c-2.449-.918-5.815.306-8.57,0a5.761,5.761,0,0,1-4.591-3.061c-1.53-3.367.306-6.733,3.367-8.264A9.226,9.226,0,0,1,23.116,2.5l.918,1.53a7.3,7.3,0,0,0-3.673,1.224c-2.755,1.224-3.979,3.367-2.755,5.815.918,1.836,2.449,2.142,4.285,2.142,2.142,0,4.591-.612,7.04-.306a4.793,4.793,0,0,1,4.285,3.367C35.359,20.252,32.3,23.619,28.013,25.761Z" transform="translate(31.158 4.993)"/>
    <path id="Path_2669" data-name="Path 2669" class="cls-1" d="M30.121,24.173a19.067,19.067,0,0,1-5.815.306V22.643a11.57,11.57,0,0,0,5.509-.306c3.979-.918,6.427-2.755,5.815-5.815a4.457,4.457,0,0,0-1.836-2.755c-2.142-1.53-5.509-1.224-8.264-2.142a5.057,5.057,0,0,1-3.367-3.979C21.551,3.973,24,1.218,27.672.606A23.272,23.272,0,0,1,31.957.3V2.136H28.284c-2.755.612-4.591,2.449-4.285,4.9.306,1.836,1.836,2.449,3.367,3.061,2.142.612,4.591.612,6.733,1.53a5.077,5.077,0,0,1,3.367,4.285C38.691,20.5,34.712,23.255,30.121,24.173Z" transform="translate(45.272 0.46)"/>
    <path id="Path_2670" data-name="Path 2670" class="cls-1" d="M37.214,23.408c-5.815-.612-8.57-4.591-7.958-12.549C30.175,2.9,33.847-.465,39.357.147s8.57,4.591,7.958,12.549C46.4,20.654,42.723,24.021,37.214,23.408ZM39.357,1.678c-3.979-.306-7.04,1.836-7.958,9.182-.612,7.346,1.836,10.1,5.815,10.406s7.04-1.836,7.958-9.182C45.784,5.044,43.335,1.984,39.357,1.678Z" transform="translate(59.909 0)"/>
    <path id="Path_2671" data-name="Path 2671" class="cls-1" d="M54.913,9.623c-.306-2.449-1.53-3.673-3.979-4.9-3.979-1.53-7.958.306-10.406,6.427-2.755,6.427-1.224,10.1,2.755,11.937a13.862,13.862,0,0,0,4.9.918v1.836A16.107,16.107,0,0,1,42.67,24.62c-5.2-2.142-7.346-6.733-3.979-14.385s8.57-9.182,13.161-7.04c3.367,1.53,4.591,3.367,5.2,6.121Z" transform="translate(76.184 4.604)"/>
    <path id="Path_2672" data-name="Path 2672" class="cls-1" d="M54.2,31.037l3.979-6.427-6.121-6.733-6.733,3.367L44.1,19.712,64.913,9l3.367,3.979L55.424,32.567ZM65.831,12.979l-1.53-1.53L53.588,16.958,59.1,23.079Z" transform="translate(90.669 18.387)"/>
    <path id="Path_2673" data-name="Path 2673" class="cls-1" d="M71.549,28.3l-3.367-6.121L49.818,31.97,48.9,30.134,67.264,20.34,63.9,14.218l1.53-.918,7.652,14.385Z" transform="translate(100.561 27.248)"/>
    <path id="Path_2674" data-name="Path 2674" class="cls-1" d="M51.512,34.908c-.306-5.815,3.367-9.182,11.324-9.794,7.958-.306,11.937,2.755,12.243,8.57.306,5.509-3.061,9.182-11.324,9.794C55.8,43.784,51.818,40.724,51.512,34.908Zm21.731-1.224c-.306-4.285-3.061-6.733-10.406-6.427s-9.794,3.367-9.488,7.346,3.061,6.733,10.406,6.427S73.549,37.969,73.243,33.684Z" transform="translate(105.907 51.55)"/>
    <path id="Path_2675" data-name="Path 2675" class="cls-1" d="M50.612,47.485l22.037-7.04L54.285,34.936,54.9,33.1l21.731,6.427-.612,1.836L53.979,48.4l18.364,5.509-.612,1.836L50,49.322Z" transform="translate(102.827 68.049)"/>
    <path id="Path_2676" data-name="Path 2676" class="cls-1" d="M11.1,67.116A56.168,56.168,0,0,1,67.416,10.8h0v4.285A51.661,51.661,0,0,0,15.691,66.81h0a51.661,51.661,0,0,0,51.725,51.725h0A51.661,51.661,0,0,0,119.142,66.81h0A51.661,51.661,0,0,0,67.416,15.085h0V10.8a56.168,56.168,0,0,1,56.316,56.316h0a56.168,56.168,0,0,1-56.316,56.316h0C36.2,123.739,11.1,98.335,11.1,67.116Z" transform="translate(22.667 22.097)"/>
    <path id="Path_2677" data-name="Path 2677" class="cls-1" d="M15.449,85.268A9.206,9.206,0,0,1,13,78.535h0c0-5.509,3.061-11.324,7.958-16.528h0c5.509-5.815,11.631-8.264,14.691-9.794h0c0-3.061.306-6.733.306-10.1h0C36.567,29.564,41.77,13.649,58.6,11.506h0a13.725,13.725,0,0,1,3.367-.306h0c9.182,0,15,4.9,18.058,7.652h0l-3.061,3.367c-2.755-2.449-7.346-6.427-14.691-6.427h0a8.474,8.474,0,0,0-2.755.306h0c-13.467,1.53-17.752,14.385-18.67,26.016h0c-1.224,17.14.918,31.831-7.652,41.319h0c-3.061,3.367-6.427,5.2-10.1,5.2h0a9.031,9.031,0,0,1-7.652-3.367Zm8.876-19.894c-4.285,4.285-6.733,9.794-6.733,13.161h0a4.879,4.879,0,0,0,1.224,3.673h0c1.53,1.53,2.755,2.142,3.979,2.142h0c1.53,0,3.979-.918,6.427-3.673h0c4.591-4.591,5.509-12.549,5.815-22.955h0a27.019,27.019,0,0,0-10.712,7.652Z" transform="translate(26.583 22.921)"/>
    <path id="Path_2678" data-name="Path 2678" class="cls-1" d="M63.385,101.353Zm-2.142-4.285c3.979-1.836,12.549-6.427,14.079-11.324h0A22.981,22.981,0,0,0,76.546,78.4h0c0-9.488-6.733-16.834-14.385-22.037h0c-14.079-9.488-27.852-15.3-31.831-27.24h0a20.8,20.8,0,0,1-.918-5.815h0c-.306-5.2,3.367-9.182,8.264-10.1h0a3.882,3.882,0,0,1,1.836-.306h0c7.346.306,12.855,7.652,15.609,16.528h0a36.072,36.072,0,0,1,1.53,10.712h0c0,2.755-.306,5.2-.306,6.733h0c2.755,1.836,5.509,3.367,8.57,5.509h0c8.57,5.509,16.528,14.079,16.528,26.016h0a31.822,31.822,0,0,1-1.53,8.876h0c-2.755,7.958-12.243,11.937-16.528,14.079h0l-2.142-4.285ZM39.512,17.8h-.918C35.227,18.715,34,19.94,34,23.306h0a31.83,31.83,0,0,0,.612,4.591h0c1.53,6.121,8.264,11.018,16.834,16.528h0c0-1.224.306-2.449.306-3.979h0a36.692,36.692,0,0,0-1.224-9.488h0C48.082,23,42.879,17.8,39.512,17.8Z" transform="translate(60.366 26.424)"/>
    <path id="Path_2679" data-name="Path 2679" class="cls-1" d="M17.491,53.506C13.512,48.915,12.9,42.182,12.9,37.285h0A16.263,16.263,0,0,1,13.206,33h0l4.591.306c0,.918-.306,2.449-.306,3.979h0c0,4.591.918,10.406,3.367,13.161h0a20.531,20.531,0,0,0,16.222,7.346h0c5.2,0,11.018-1.836,15.915-4.285h0c13.773-6.733,24.485-14.385,35.2-14.385h0a11.9,11.9,0,0,1,4.591.612h0c6.427,1.53,10.712,5.2,10.712,10.712h0a15.362,15.362,0,0,1-.612,3.673h0c-1.836,5.815-8.264,7.958-15,7.958h0a37.389,37.389,0,0,1-7.958-.918h0A41.96,41.96,0,0,1,64.013,53.2h0c-2.755,1.53-5.815,3.061-8.876,4.591h0a38.466,38.466,0,0,1-17.752,4.9h0c-7.04,0-14.079-2.755-19.894-9.182Zm63.662,2.755a27.3,27.3,0,0,0,6.733.918h0c5.815,0,9.794-2.142,10.406-4.591h0A7.606,7.606,0,0,0,98.6,50.14h0c0-2.755-1.53-4.591-7.04-6.121h0a12.555,12.555,0,0,0-3.367-.306h0c-5.509,0-11.631,2.755-19.282,6.733h0a32.6,32.6,0,0,0,12.243,5.815Z" transform="translate(26.377 67.843)"/>
    <path id="Path_2680" data-name="Path 2680" class="cls-1" d="M10.161,63.51c-4.285-4.285-3.979-9.182,1.836-15s10.712-5.815,15-1.836c4.285,4.285,3.979,9.182-1.836,15C19.343,67.183,14.14,67.489,10.161,63.51ZM23.934,49.431c-1.836-1.836-4.591-2.142-8.876,2.142-4.591,4.591-3.979,7.04-2.142,8.876s4.591,2.142,9.182-2.142C26.382,54.022,25.77,51.267,23.934,49.431Z" transform="translate(14.731 90.283)"/>
    <path id="Path_2681" data-name="Path 2681" class="cls-1" d="M22.9,73.11l.306-9.182a6.69,6.69,0,0,1-1.53-.918l-.918-.612-4.285,7.04L12.8,67.294,23.818,47.4c1.224.612,3.979,1.836,6.121,2.755,4.285,2.449,6.733,6.121,3.979,10.712a6.6,6.6,0,0,1-6.733,3.673V74.946Zm5.2-19.282c-.612-.306-1.53-.612-2.142-.918l-3.673,6.733,1.224.612c2.449,1.224,5.2,1.836,6.733-.918C31.47,56.582,29.634,54.746,28.1,53.827Z" transform="translate(26.171 97.517)"/>
    <path id="Path_2682" data-name="Path 2682" class="cls-1" d="M35.757,58.552c-.612-2.449-2.142-3.061-3.673-3.673-3.673-.918-5.815,1.836-6.733,6.427-1.224,4.9-.306,8.264,3.367,8.876a11.482,11.482,0,0,0,3.061.306L32.7,66.51l-3.367-.918,1.224-3.367,7.04,1.53L34.839,74.468a19.963,19.963,0,0,1-7.346-.612c-5.509-1.224-8.57-5.509-6.733-13.773C22.6,52.125,27.8,49.676,33,50.9c3.979.918,5.509,2.755,6.121,5.509Z" transform="translate(41.472 104.117)"/>
    <path id="Path_2683" data-name="Path 2683" class="cls-1" d="M40.967,73.843l-1.53-6.121-6.733.306-1.224,6.427H27.5l4.285-22.649,7.652-.306,6.121,22.343Zm-4.591-18.67H35.152l-1.53,8.876,5.2-.306Z" transform="translate(56.462 105.966)"/>
    <path id="Path_2684" data-name="Path 2684" class="cls-1" d="M53.9,72.355,39.515,61.031l4.9,14.385L40.74,76.64,33.7,55.215l3.979-1.224L52.064,65.622l-5.2-15L50.84,49.4l7.04,21.425Z" transform="translate(69.238 101.638)"/>
    <path id="Path_2685" data-name="Path 2685" class="cls-1" d="M55.421,47.857c-2.449-.918-3.673,0-5.2,1.224-2.449,2.449-1.224,5.815,1.836,9.182,3.367,3.673,6.733,4.591,9.488,2.142A14.387,14.387,0,0,0,64.3,56.733l3.061,1.53a10.875,10.875,0,0,1-3.367,4.9c-4.285,3.979-9.182,4.285-15.3-1.53-5.815-5.815-5.2-11.324-1.224-15.3,2.755-2.755,5.2-3.061,7.958-2.449Z" transform="translate(91.285 89.714)"/>
    <path id="Path_2686" data-name="Path 2686" class="cls-1" d="M43.73,24.888,42.2,23.664,55.055,5.3l1.836,1.224Z" transform="translate(86.754 10.763)"/>
    <path id="Path_2687" data-name="Path 2687" class="cls-1" d="M51.312,29.27,50.7,27.127,72.125,20.7l.612,2.142Z" transform="translate(104.27 42.497)"/>
    <rect id="Rectangle_1244" data-name="Rectangle 1244" class="cls-1" width="4.285" height="22.649" transform="translate(124.562 148.137) rotate(-32.113)"/>
    <rect id="Rectangle_1245" data-name="Rectangle 1245" class="cls-1" width="2.142" height="22.649" transform="translate(2.484 70.157) rotate(-76.561)"/>
  </g>
</svg>
