<svg xmlns="http://www.w3.org/2000/svg" xmlns:xlink="http://www.w3.org/1999/xlink"><symbol viewBox="-18521.063 -23561.404 17.125 2" id="Line_103"><defs><style>.aa{fill:none;stroke:#313639;stroke-width:2px}</style></defs><path class="aa" d="M-18521.063-23560.404h17.125"/></symbol><symbol viewBox="-18521.063 -23553.5 17.125 2" id="Line_104"><defs><style>.ba{fill:none;stroke:#313639;stroke-width:2px}</style></defs><path class="ba" d="M-18521.063-23552.5h17.125"/></symbol><symbol viewBox="-18521.063 -23545.596 17.125 2" id="Line_105"><defs><style>.ca{fill:none;stroke:#313639;stroke-width:2px}</style></defs><path class="ca" d="M-18521.063-23544.596h17.125"/></symbol><symbol viewBox="-1381.616 -17515 103.832 44.785" id="icon_community"><defs><style>.da{fill:#256a37}</style></defs><g transform="translate(-1381.616 -17514.9)"><path class="da" d="M20.981 37.919a13.971 13.971 0 1 1 13.971-13.971 13.987 13.987 0 0 1-13.971 13.971zm0-24.266a10.32 10.32 0 1 0 10.32 10.324 10.325 10.325 0 0 0-10.32-10.325z"/><path class="da" d="M77.497 44.684H26.165l.779-2.385a26.167 26.167 0 0 1 49.774 0zm-46.172-3.651h40.988a22.532 22.532 0 0 0-40.988 0z"/><path class="da" d="M51.819 27.842A13.971 13.971 0 1 1 65.79 13.871a13.987 13.987 0 0 1-13.971 13.971zm0-24.266a10.32 10.32 0 1 0 10.32 10.32 10.325 10.325 0 0 0-10.32-10.321zM82.462 37.919a13.971 13.971 0 1 1 13.971-13.971 13.987 13.987 0 0 1-13.971 13.971zm0-24.266a10.32 10.32 0 1 0 10.32 10.32 10.325 10.325 0 0 0-10.32-10.321zM41.961 44.685H0l3.578-3.188a26.183 26.183 0 0 1 34.805 0z"/><path class="da" d="M103.832 44.685H61.068l3.286-3.14a26.171 26.171 0 0 1 36.168 0z"/></g></symbol><symbol viewBox="0 0 5.84 12" id="icon_facebook"><title>icon_facebook</title><path fill="#fff" d="M0 6.37v-2h1.49V2.61a2.77 2.77 0 0 1 .17-1A2.5 2.5 0 0 1 2.18.8a2.34 2.34 0 0 1 .91-.59A3.7 3.7 0 0 1 4.39 0h1.43l-.04 2h-1.3a.84.84 0 0 0-.68.22 1.1 1.1 0 0 0-.17.68v1.44h2.2l-.1 2h-2.1V12H1.49V6.37z"/></symbol><symbol viewBox="-1362.041 -21637.559 62.743 42.754" id="icon_gate"><defs><style>.fa{fill:#256a37}</style></defs><path class="fa" d="M-1362.041-21637.559v42.755h62.743v-42.755zm59.725 10.334h-9.055l9.075-6.036v6.036zm-56.725 12.393h23.626l-9.614 6.4h-14.012v-6.4zm0-3v-6.4h37.758l-9.614 6.4zm29.043 3h27.7v6.4h-37.316zm27.684-3h-23.189l9.614-6.4h13.572zm-3.458-16.73l-11.013 7.336h-42.256v-7.333zm-53.269 29.124h9.514l-9.514 6.336v-6.336zm3.458 7.635l11.473-7.635h41.815v7.635z"/></symbol><symbol viewBox="0 0 11.87 10.36" id="icon_googleplus"><title>icon_googleplus</title><path fill="#fff" d="M.23 7.56A2 2 0 0 1 1 6.75a4 4 0 0 1 1.34-.5 9.24 9.24 0 0 1 1.16-.12 2.59 2.59 0 0 1-.29-.42.89.89 0 0 1-.15-.52.69.69 0 0 1 .06-.3l.09-.23h-.42A2 2 0 0 1 1.19 4a2.08 2.08 0 0 1-.57-1.46A2.48 2.48 0 0 1 1.46.73a2.94 2.94 0 0 1 1.2-.62A6 6 0 0 1 3.82 0h2.71l-.87.48h-.77L5 .5v.05l.07.08.08.07a2.15 2.15 0 0 1 .28.38 3.27 3.27 0 0 1 .23.52 2.7 2.7 0 0 1 .08.7 2.14 2.14 0 0 1-.29 1.17 3.25 3.25 0 0 1-.29.39l-.37.37a2 2 0 0 0-.21.29.65.65 0 0 0-.12.39.52.52 0 0 0 .12.35l.19.23.42.38a4.92 4.92 0 0 1 .75.78 2 2 0 0 1 .31 1.13 2.29 2.29 0 0 1-.86 1.76 3.89 3.89 0 0 1-2.58.82A3.22 3.22 0 0 1 .7 9.74 1.67 1.67 0 0 1 0 8.4a2 2 0 0 1 .23-.84zM1.7 9.3a2.76 2.76 0 0 0 1.67.48 2.38 2.38 0 0 0 1.5-.43 1.28 1.28 0 0 0 .5-1A1.32 1.32 0 0 0 5 7.4a8.51 8.51 0 0 0-1.1-.9h-.41L3 6.52a6.27 6.27 0 0 0-.86.19l-.29.12a1.72 1.72 0 0 0-.38.25 1.34 1.34 0 0 0-.32.41 1.25 1.25 0 0 0-.15.63 1.4 1.4 0 0 0 .7 1.18zm.42-5.88a2.24 2.24 0 0 0 .55.63 1.24 1.24 0 0 0 .77.26 1.41 1.41 0 0 0 1-.39 1.38 1.38 0 0 0 .24-.54v-.46a3.42 3.42 0 0 0-.43-1.62 1.8 1.8 0 0 0-.53-.64 1.41 1.41 0 0 0-.77-.24A1.3 1.3 0 0 0 2 .87a1.63 1.63 0 0 0-.31 1v.06a3.19 3.19 0 0 0 .42 1.49zm6.75-.32v2.3h.72V3.1h2.28v-.82H9.59V0h-.72v2.28H6.59v.82z"/></symbol><symbol viewBox="-1349.388 -22389.613 40.334 45.602" id="icon_heart"><defs><style>.ha{fill:none;stroke:#256a37;stroke-miterlimit:10;stroke-width:4px}</style></defs><path class="ha" d="M-1321.621-22387.591a10.535 10.535 0 0 1 10.525 9.969v.124l.021.124a2.118 2.118 0 0 1 .021.35 35.095 35.095 0 0 1-18.167 30.731 35.095 35.095 0 0 1-18.167-30.732 2.9 2.9 0 0 1 .021-.412l.021-.144v-.144a10.534 10.534 0 0 1 15.8-8.466l2.307 1.339 2.307-1.339a11.012 11.012 0 0 1 5.314-1.4"/></symbol><symbol viewBox="-1385.904 -18194 110.707 45.07" id="icon_holistic"><defs><style>.ia{fill:#256a37}.ib{fill:none}</style></defs><g transform="translate(-1350.713 -18194)"><path class="ia" d="M2.602 45.071A37.732 37.732 0 0 1-35.191 7.278a2.656 2.656 0 0 1 2.637-2.637 2.656 2.656 0 0 1 2.637 2.637 32.537 32.537 0 0 0 48.796 28.163 2.629 2.629 0 1 1 2.6 4.57 37.547 37.547 0 0 1-18.877 5.06z"/><path class="ia" d="M37.758 45.071a38.1 38.1 0 0 1-18.914-5.027 2.629 2.629 0 1 1 2.6-4.57 32.537 32.537 0 0 0 48.8-28.16 2.656 2.656 0 0 1 2.637-2.637 2.656 2.656 0 0 1 2.637 2.637 37.857 37.857 0 0 1-18.914 32.731 37.645 37.645 0 0 1-18.846 5.026z"/><circle class="ib" cx="17.543" cy="17.543" r="17.543" transform="translate(2.637 2.672)"/><path class="ia" d="M20.18 40.359a20.18 20.18 0 1 1 20.18-20.18 20.2 20.2 0 0 1-20.18 20.18zm0-35.051a14.906 14.906 0 1 0 14.906 14.906A14.914 14.914 0 0 0 20.18 5.309z"/></g></symbol><symbol viewBox="0 0 11.99 12" id="icon_instagram"><title>icon_instagram</title><path fill="#fff" d="M0 8.33V1.34A1.28 1.28 0 0 1 .32.48 1.35 1.35 0 0 1 1.14 0h9.46a1.4 1.4 0 0 1 .93.34 1.27 1.27 0 0 1 .45.85V10.63A1.38 1.38 0 0 1 10.79 12H1.36a1.36 1.36 0 0 1-.89-.32 1.23 1.23 0 0 1-.45-.8 1.55 1.55 0 0 1 0-.22Q0 9.88 0 8.33zm1.47 2.22a.5.5 0 0 0 .35.14h8.3a.45.45 0 0 0 .34-.14.49.49 0 0 0 .13-.35V7.67 5h-1a4.24 4.24 0 0 1 .12 1 3.57 3.57 0 0 1-.27 1.3A3.61 3.61 0 0 1 8 9.06a3.66 3.66 0 0 1-1.93.62H6a3.69 3.69 0 0 1-3.26-2A3.67 3.67 0 0 1 2.31 6a4.09 4.09 0 0 1 .12-1h-1.1v5.2a.46.46 0 0 0 .14.35zm2.89-2.86A2.22 2.22 0 0 0 6 8.37a2.21 2.21 0 0 0 1.63-.68A2.27 2.27 0 0 0 8.3 6a2.27 2.27 0 0 0-.67-1.66A2.21 2.21 0 0 0 6 3.69a2.21 2.21 0 0 0-1.63.69A2.26 2.26 0 0 0 3.69 6a2.27 2.27 0 0 0 .67 1.69zm4.08-4.13a.45.45 0 0 0 .34.14h1.37a.44.44 0 0 0 .33-.14.47.47 0 0 0 .13-.34V1.8a.47.47 0 0 0-.13-.34.45.45 0 0 0-.34-.14H8.78a.45.45 0 0 0-.33.14.47.47 0 0 0-.13.34v1.41a.47.47 0 0 0 .12.35z"/></symbol><symbol viewBox="-1356.883 -16710.824 42.552 48.049" id="icon_loyal"><defs><style>.ka{fill:#256a37}</style></defs><g transform="translate(-1356.893 -16710.824)"><path class="ka" d="M21.285 25.864l-.512-.163a13.376 13.376 0 0 1 0-25.561l.512-.14.512.163a13.376 13.376 0 0 1 0 25.561zm0-22.185a9.88 9.88 0 0 0 0 18.531 9.88 9.88 0 0 0 0-18.531z"/><path class="ka" d="M13.394 28.89A13.4 13.4 0 0 1 .357 12.524l.116-.512.4-.372a13.285 13.285 0 0 1 15.784-1.793 13.261 13.261 0 0 1 6.332 14.55l-.116.512-.4.372a13.176 13.176 0 0 1-9.079 3.609zM3.64 13.851a9.874 9.874 0 0 0 16.04 9.265 9.874 9.874 0 0 0-16.04-9.265z"/><path class="ka" d="M9.949 39.994A13.259 13.259 0 0 1 .87 36.409l-.4-.372-.116-.512a13.352 13.352 0 0 1 22.119-12.758l.4.372.116.512a13.293 13.293 0 0 1-6.332 14.55 13.475 13.475 0 0 1-6.708 1.793zm-6.309-5.8a9.874 9.874 0 0 0 16.039-9.263A9.874 9.874 0 0 0 3.64 34.198z"/><path class="ka" d="M21.285 48.049l-.512-.163a13.376 13.376 0 0 1 0-25.561l.512-.163.512.163a13.376 13.376 0 0 1 0 25.561zm0-22.185a9.88 9.88 0 0 0 0 18.531 9.88 9.88 0 0 0 0-18.531z"/><path class="ka" d="M32.623 39.995a13.4 13.4 0 0 1-13.037-16.366l.116-.512.4-.372a13.352 13.352 0 0 1 22.116 12.757l-.116.512-.4.372a13.218 13.218 0 0 1-9.079 3.609zm-9.754-15.039a9.874 9.874 0 0 0 16.04 9.265 9.874 9.874 0 0 0-16.04-9.265z"/><path class="ka" d="M29.178 28.89a13.259 13.259 0 0 1-9.079-3.585l-.4-.372-.116-.512a13.352 13.352 0 0 1 22.116-12.757l.4.372.116.512a13.293 13.293 0 0 1-6.332 14.55 13.475 13.475 0 0 1-6.705 1.792zm-6.309-5.773a9.874 9.874 0 0 0 16.04-9.265 9.874 9.874 0 0 0-16.04 9.265z"/></g></symbol><symbol viewBox="-1364.405 -19203 69.811 44.924" id="icon_organic"><defs><style>.la{fill:#256a37}.lb{fill:#f7f6f2}</style></defs><g transform="translate(-1364.405 -19203)"><g transform="translate(0 16.505)"><path class="la" d="M23.824 28.417A23.786 23.786 0 0 1 0 4.615v-.953l.842-.488A23.835 23.835 0 0 1 36.59 23.808v.953l-.842.488a23.786 23.786 0 0 1-11.924 3.168zM3.346 5.59a20.518 20.518 0 0 0 29.9 17.242A20.518 20.518 0 0 0 3.346 5.59z"/><path class="la" d="M45.986 28.417a24.015 24.015 0 0 1-11.923-3.169l-.842-.488v-.953A23.835 23.835 0 0 1 68.969 3.175l.842.488v.953a23.786 23.786 0 0 1-23.824 23.8zm-9.4-5.585a20.518 20.518 0 0 0 29.9-17.242 20.518 20.518 0 0 0-29.9 17.242z"/></g><g transform="translate(22.162)"><path class="lb" d="M12.743 1.928a22.161 22.161 0 0 0 0 38.385 22.161 22.161 0 0 0 0-38.385z"/><path class="la" d="M12.743 42.241l-.842-.488a23.836 23.836 0 0 1 0-41.266L12.743 0l.842.488a23.836 23.836 0 0 1 0 41.266zm0-38.363a20.491 20.491 0 0 0 0 34.484 20.491 20.491 0 0 0 0-34.484z"/></g></g></symbol><symbol viewBox="0 0 9.68 12" id="icon_pinterest"><title>icon_pinterest</title><path fill="#fff" d="M0 4.47a4 4 0 0 1 .2-1.25A4.37 4.37 0 0 1 .84 2a5 5 0 0 1 1-1A4.64 4.64 0 0 1 3.31.26 6.32 6.32 0 0 1 5.16 0 4.91 4.91 0 0 1 7 .34a4.34 4.34 0 0 1 1.43.91 4.13 4.13 0 0 1 .9 1.31 3.75 3.75 0 0 1 .33 1.53A5.5 5.5 0 0 1 8.6 7.58 3.37 3.37 0 0 1 5.82 9a2.35 2.35 0 0 1-1.09-.3A1.61 1.61 0 0 1 4 8.08l-.51 2a6.54 6.54 0 0 1-1 2H2a10.59 10.59 0 0 1-.06-1.12 5.17 5.17 0 0 1 .14-1.27L3 5.74a2.47 2.47 0 0 1-.23-1.14 2.07 2.07 0 0 1 .41-1.31 1.23 1.23 0 0 1 1-.53.9.9 0 0 1 .73.3 1.15 1.15 0 0 1 .25.76 2.52 2.52 0 0 1-.11.7q-.14.46-.31 1t-.27.87v.3a1.05 1.05 0 0 0 .26.69 1.14 1.14 0 0 0 .92.42 1.86 1.86 0 0 0 1.64-1.14A5.42 5.42 0 0 0 7.92 4a2.68 2.68 0 0 0-.79-2A3 3 0 0 0 5 1.18a3.45 3.45 0 0 0-2.59 1 3.38 3.38 0 0 0-1 2.44 2.18 2.18 0 0 0 .48 1.42.42.42 0 0 1 .11.3.54.54 0 0 1 0 .11L1.81 7a.26.26 0 0 1-.14.18.27.27 0 0 1-.22 0 2.09 2.09 0 0 1-1.08-1A3.77 3.77 0 0 1 0 4.47z"/></symbol><symbol viewBox="-1355.665 -20828.875 50.828 48.676" id="icon_reuse"><defs><style>.na{fill:none;stroke:#256a37;stroke-miterlimit:10;stroke-width:4px}.nb{fill:#256a37}</style></defs><g transform="translate(-1387 -20861)"><path class="na" d="M71.6 55.4l-11-19.1a4.32 4.32 0 0 0-7.5 0L46.8 47M53.7 75.7h22.1a4.31 4.31 0 0 0 3.7-6.5l-6.2-10.7M45 50.1L34 69.3a4.31 4.31 0 0 0 3.7 6.5H50"/><path class="nb" d="M55.9 80.8l-5-5.1 5-5zM73 57.9L66.1 56l8.7-5zM39.6 49.5l6.8-1.8 1.9 6.9z"/></g></symbol><symbol viewBox="-1356.896 -19917.895 43.392 43.391" id="icon_smile"><defs><style>.oa{fill:#256a37}</style></defs><g transform="translate(-1392 -19953)"><path class="oa" d="M56.804 38.358a18.442 18.442 0 1 1-18.446 18.446 18.454 18.454 0 0 1 18.446-18.446m0-3.254a21.7 21.7 0 1 0 21.7 21.7 21.7 21.7 0 0 0-21.7-21.7z"/><path class="oa" d="M56.8 69.253a12.464 12.464 0 0 1-11.477-7.594 1.624 1.624 0 1 1 2.994-1.258 9.192 9.192 0 0 0 17.14-.521 1.633 1.633 0 1 1 3.081 1.085A12.458 12.458 0 0 1 56.8 69.253z"/><circle class="oa" cx="2.365" cy="2.365" r="2.365" transform="translate(46.82 47.102)"/><circle class="oa" cx="2.365" cy="2.365" r="2.365" transform="translate(62.05 46.82)"/></g></symbol><symbol viewBox="0 0 12 9.75" id="icon_twitter"><title>icon_twitter</title><path fill="#fff" d="M0 8.64a4.91 4.91 0 0 0 .59 0 4.82 4.82 0 0 0 3.05-1.02 2.37 2.37 0 0 1-1.43-.49 2.4 2.4 0 0 1-.87-1.22 2.48 2.48 0 0 0 .46 0 2.36 2.36 0 0 0 .64-.09A2.43 2.43 0 0 1 1 5a2.37 2.37 0 0 1-.52-1.54 2.46 2.46 0 0 0 1.12.3 2.44 2.44 0 0 1-.8-.87 2.4 2.4 0 0 1-.3-1.2A2.43 2.43 0 0 1 .84.45a7 7 0 0 0 2.24 1.81A6.86 6.86 0 0 0 5.91 3a2.54 2.54 0 0 1-.06-.56A2.37 2.37 0 0 1 6.57.72 2.37 2.37 0 0 1 8.31 0a2.37 2.37 0 0 1 1.8.77 4.92 4.92 0 0 0 1.56-.6 2.37 2.37 0 0 1-1.08 1.37A5 5 0 0 0 12 1.15a4.82 4.82 0 0 1-1.23 1.27v.32a6.85 6.85 0 0 1-.15 1.41 7.13 7.13 0 0 1-.45 1.4 8 8 0 0 1-.73 1.31A6.35 6.35 0 0 1 8.43 8a7.17 7.17 0 0 1-1.29.91 6.38 6.38 0 0 1-1.56.6 7.43 7.43 0 0 1-1.81.22A6.86 6.86 0 0 1 0 8.64z"/></symbol><symbol viewBox="0 0 268.09 19.45" id="ns_logo"><title>ns_logo</title><g style="isolation:isolate" fill="#256a37"><path d="M0 4.51A1.88 1.88 0 0 1 .13 4L1.37.36h1.46l-.06.21a.25.25 0 0 0 .17.27A3.52 3.52 0 0 0 3.8.9h10a2.74 2.74 0 0 0 .82-.08.78.78 0 0 0 .38-.46h1.54L15 4.86h-.91q-.57 0-.57-.33l.05-.23v-.29q0-1.23-2.29-1.23a2.75 2.75 0 0 0-1.54.29 1.44 1.44 0 0 0-.38 1.18v11.34a1.53 1.53 0 0 0 .26 1.05 1.46 1.46 0 0 0 1 .25H12a.6.6 0 0 1 .4.14.37.37 0 0 1 .14.35l-.05.25-.49 1.28H3.82a.43.43 0 0 1-.29-.17.48.48 0 0 1-.16-.32l.08-.42.32-1.05h1.49a1 1 0 0 0 .88-.38 2.44 2.44 0 0 0 .26-1.3V4.44a2 2 0 0 0-.31-1.33A2.11 2.11 0 0 0 4.7 2.8a3.74 3.74 0 0 0-2 .45 3 3 0 0 0-1.1 1.61H.5q-.5 0-.5-.35zM17 18.42l.08-.4.33-1.09h.51a1 1 0 0 0 .88-.38 2.47 2.47 0 0 0 .26-1.33v-11a1.65 1.65 0 0 0-.26-1.07 1.33 1.33 0 0 0-1-.29h-.28a.46.46 0 0 1-.52-.44v-.25L17.43.9H24q.75 0 .75.49l-.08.44-.36 1h-1.13a1 1 0 0 0-.9.35 2.71 2.71 0 0 0-.28 1.4v2.87h8.13V4.22a1.63 1.63 0 0 0-.26-1.06 1.34 1.34 0 0 0-1-.29h-.79q-.51 0-.51-.45l.05-.25.45-1.27h6.49q.75 0 .75.49l-.08.44-.36 1h-.57a1 1 0 0 0-.89.36 2.61 2.61 0 0 0-.24 1.36v11a1.56 1.56 0 0 0 .27 1 1.32 1.32 0 0 0 1 .3h.3q.51.21.51.51v.25l-.41 1.22H28a.45.45 0 0 1-.3-.16.46.46 0 0 1-.17-.32l.08-.4.39-1.02h1a1 1 0 0 0 .88-.38 2.49 2.49 0 0 0 .26-1.33V9.43H22v6.15a1.57 1.57 0 0 0 .27 1.05 1.33 1.33 0 0 0 1 .3h.75q.51.21.51.51v.25l-.41 1.22h-6.7a.46.46 0 0 1-.3-.16.46.46 0 0 1-.12-.33zM36.81 18.42l.08-.41.36-1.08h.51a1 1 0 0 0 .88-.38 2.47 2.47 0 0 0 .26-1.32v-11a1.65 1.65 0 0 0-.28-1.09 1.27 1.27 0 0 0-1-.32h-.3c-.34 0-.51-.15-.51-.45l.05-.25.41-1.22h12.26q.95 0 .95.51l-.09.41-1 3h-.9q-.62 0-.62-.41l.05-.29v-.36c0-.38-.24-.64-.71-.8a9.22 9.22 0 0 0-2.5-.23 6.83 6.83 0 0 0-2.28.27 1.07 1.07 0 0 0-.54 1.09v3.35h5.41q.7 0 .7.45l-.08.44-.33.95a.75.75 0 0 1-.78.54l-.54-.06-2.5-.32-1.11-.08a.71.71 0 0 0-.6.22 1.55 1.55 0 0 0-.17.86v4.86a3.79 3.79 0 0 0 .09 1q.08.26.61.53a6.69 6.69 0 0 0 2.41.27 8 8 0 0 0 3.26-.51 4.57 4.57 0 0 0 1.92-2H51q.67 0 .67.51l-.08.38-1.36 3.92h-1.4q0-.36-.22-.45a3.25 3.25 0 0 0-1-.09H37.27a.45.45 0 0 1-.3-.17.47.47 0 0 1-.16-.27zM59.16 18.42l.08-.43.36-1h.57a1 1 0 0 0 .88-.39 2.48 2.48 0 0 0 .26-1.31v-11A1.65 1.65 0 0 0 61 3.16a1.33 1.33 0 0 0-1-.29l-.33-.05q-.51-.05-.51-.45v-.25L59.62.9h3.81a43.67 43.67 0 0 1 3.18 3.2q1.94 2.12 3.55 4.07t2.77 3.52V4.23a1.59 1.59 0 0 0-.27-1.06 1.3 1.3 0 0 0-1-.3h-.86a.53.53 0 0 1-.38-.16.47.47 0 0 1-.16-.34l.05-.25.41-1.22h6.08q.75 0 .75.49l-.11.41-.33 1.08h-.57a1 1 0 0 0-.89.36 2.6 2.6 0 0 0-.24 1.36v14.66h-2.35a6.72 6.72 0 0 0-.26-2.06 25.2 25.2 0 0 0-2.36-3.86 57.5 57.5 0 0 0-6.66-7.66v9.92a1.59 1.59 0 0 0 .22 1.07 1.45 1.45 0 0 0 1 .26h1q.51 0 .5.48l-.05.25-.37 1.25h-6.46a.46.46 0 0 1-.3-.16.46.46 0 0 1-.16-.33zM77.49 18.47l.05-.34.41-1.2h.24a1.78 1.78 0 0 0 1.35-.46 7.2 7.2 0 0 0 1-2L84.7 3.89l.49-1.29q.21-.62.33-1t.17-.7h2.06a1.79 1.79 0 0 1 .76.11 1 1 0 0 1 .35.54L94 15a7.66 7.66 0 0 0 .73 1.55.91.91 0 0 0 .76.31c.4 0 .59.14.59.41a.57.57 0 0 1-.05.28l-.41 1.32H89.1a2.52 2.52 0 0 1-.8-.08c-.12-.05-.18-.18-.18-.38a.73.73 0 0 1 .05-.32l.37-1.2h1.05q1.44 0 1.44-.78a5.29 5.29 0 0 0-.38-1.37l-1.34-3.64h-4.88l-1.08 3q-.3.83-.41 1.24a2.9 2.9 0 0 0-.11.71q0 .88 1 .88h.67q.62 0 .62.41v.25l-.42 1.32h-6.26a2.34 2.34 0 0 1-.76-.08.34.34 0 0 1-.19-.36zm7.63-9.31h3.44l-1.73-4.65zM94.9 4.51A1.88 1.88 0 0 1 95 4L96.27.36h1.46l-.07.21a.25.25 0 0 0 .17.27 3.52 3.52 0 0 0 .86.06h10a2.74 2.74 0 0 0 .82-.08.78.78 0 0 0 .36-.46h1.54l-1.51 4.5h-.9q-.57 0-.57-.33l.05-.23v-.29q0-1.23-2.29-1.23a2.75 2.75 0 0 0-1.54.29 1.44 1.44 0 0 0-.38 1.18v11.34a1.53 1.53 0 0 0 .26 1.05 1.46 1.46 0 0 0 1 .25h1.31a.6.6 0 0 1 .4.14.37.37 0 0 1 .14.35l-.05.25-.41 1.27h-8.2a.43.43 0 0 1-.29-.17.48.48 0 0 1-.16-.32l.08-.43.32-1.05h1.49a1 1 0 0 0 .88-.38 2.44 2.44 0 0 0 .26-1.3V4.44a2 2 0 0 0-.3-1.32 2.11 2.11 0 0 0-1.39-.31 3.74 3.74 0 0 0-2 .45 3 3 0 0 0-1.1 1.61H95.4q-.52-.01-.5-.36zM111.63 2.37l.05-.25.41-1.22h6.31q.75 0 .75.49l-.08.41-.36 1.08h-.88a1 1 0 0 0-.89.36 2.6 2.6 0 0 0-.24 1.36v8.52a6.39 6.39 0 0 0 .13 1.54 3.19 3.19 0 0 0 .85 1.21 3.62 3.62 0 0 0 2.6.73q2.06 0 2.72-.85a4.42 4.42 0 0 0 .82-1.47 7.71 7.71 0 0 0 .16-1.84V4.23a1.59 1.59 0 0 0-.27-1.05 1.31 1.31 0 0 0-1-.3h-.84a.52.52 0 0 1-.38-.16.47.47 0 0 1-.17-.34l.05-.25.43-1.23h6.33q.73 0 .73.49l-.08.41-.36 1.08h-.51a1 1 0 0 0-.89.36 2.6 2.6 0 0 0-.24 1.36V13q0 6.26-6.63 6.27a7.17 7.17 0 0 1-4.77-1.42 5 5 0 0 1-1.67-4.07V4.23a1.64 1.64 0 0 0-.26-1.07 1.36 1.36 0 0 0-1-.29l-.29-.05a1.09 1.09 0 0 1-.44-.13c-.09-.06-.11-.16-.09-.32zM129.83 18.42l.08-.43.36-1h.54a1 1 0 0 0 .88-.39 2.48 2.48 0 0 0 .26-1.31v-11a1.65 1.65 0 0 0-.28-1.1 1.27 1.27 0 0 0-1-.32h-.28q-.51 0-.51-.45v-.25l.44-1.27h7.54a13.43 13.43 0 0 1 2.78.22 5.39 5.39 0 0 1 2 1 2.91 2.91 0 0 1 1.07 2.47 3.08 3.08 0 0 1-.9 2.44 10 10 0 0 1-1.44 1.1q-.54.31-1.65.82l-.38.2c.27.45.58.92.92 1.4l1.88 2.65a29.57 29.57 0 0 0 2.14 2.8 2.85 2.85 0 0 0 1.43 1 3.5 3.5 0 0 1 .8.22.35.35 0 0 1 .12.31.73.73 0 0 1-.05.3l-.36 1.17h-3.59a1.57 1.57 0 0 1-.7-.09 2.24 2.24 0 0 1-.42-.71q-.28-.62-1.19-2.22t-1.92-3.25l-1-1.62q-.57-.78-.95-.78a1.54 1.54 0 0 0-.42.07q-.23.07-1.07.41v4.9a1.55 1.55 0 0 0 .26 1.06 1.48 1.48 0 0 0 1 .26h.78a.61.61 0 0 1 .4.14.36.36 0 0 1 .14.34l-.05.25-.41 1.25h-6.83a.46.46 0 0 1-.3-.16.46.46 0 0 1-.12-.43zm5.1-9.6a17.18 17.18 0 0 0 4.24-1.89 2.49 2.49 0 0 0 1.25-2 1.8 1.8 0 0 0-.84-1.57 4.09 4.09 0 0 0-2.31-.57 4.18 4.18 0 0 0-1.84.28 1.1 1.1 0 0 0-.49 1.06z"/><path d="M146.32 18.47l.05-.34.41-1.2h.22a1.78 1.78 0 0 0 1.35-.46 7.21 7.21 0 0 0 1-2l4.11-10.53.54-1.34q.21-.62.33-1t.17-.67h2.06a1.8 1.8 0 0 1 .76.11 1 1 0 0 1 .35.54L162.82 15a7.73 7.73 0 0 0 .73 1.55.91.91 0 0 0 .76.31c.4 0 .59.14.59.41a.57.57 0 0 1-.05.28l-.41 1.32h-6.51a2.52 2.52 0 0 1-.8-.08c-.12-.05-.18-.18-.18-.38a.73.73 0 0 1 .05-.32l.37-1.2h1.05q1.44 0 1.44-.78a5.29 5.29 0 0 0-.38-1.37l-1.34-3.64h-4.86l-1.08 3q-.3.83-.41 1.24a2.9 2.9 0 0 0-.11.71q0 .88 1 .88h.67c.41 0 .62.14.62.41v.25l-.42 1.32h-6.26a2.34 2.34 0 0 1-.76-.08.34.34 0 0 1-.21-.36zM154 9.16h3.44l-1.74-4.65zM165.61 18.42l.08-.41.36-1.08h.57a1 1 0 0 0 .88-.38 2.47 2.47 0 0 0 .26-1.32v-11a1.61 1.61 0 0 0-.3-1.07 1.22 1.22 0 0 0-1-.34h-.3c-.34 0-.51-.15-.51-.45v-.25L166.1.9h6.67q.75 0 .75.46l-.08.43-.34 1.07h-1.23a1 1 0 0 0-.92.33 2.85 2.85 0 0 0-.22 1.38v10.5a9.27 9.27 0 0 0 0 1.05 1.39 1.39 0 0 0 .44.57 4.81 4.81 0 0 0 2.56.38 6.73 6.73 0 0 0 3-.55 5.07 5.07 0 0 0 2-1.94h.78c.47 0 .7.15.7.46l-.08.38-1.34 4h-1.44q0-.36-.17-.45a2.12 2.12 0 0 0-.8-.09h-10.31a.45.45 0 0 1-.3-.17.47.47 0 0 1-.16-.29zM187.17 17.51a3.61 3.61 0 0 1 .16-.72l.92-2.78h1q.62 0 .63.47l-.07.33v.24q0 .81 1 1.3a6.39 6.39 0 0 0 2.74.49 4.64 4.64 0 0 0 2.93-.9 2.77 2.77 0 0 0 1.16-2.28 2.08 2.08 0 0 0-1-2 12.91 12.91 0 0 0-1.81-.8l-1.53-.57q-1.7-.63-2.36-.94a7.89 7.89 0 0 1-1.62-1.15 3.46 3.46 0 0 1-1-2.75A4.21 4.21 0 0 1 190 2a6.46 6.46 0 0 1 4.24-1.34 10.85 10.85 0 0 1 2.64.32l.54.07q.46 0 .7-.68l.13-.37 1.11.37q.41.13.41.45l-.08.34-1 2.77a21.45 21.45 0 0 0-2.55-1 6.65 6.65 0 0 0-1.9-.25 3.89 3.89 0 0 0-2.24.6 1.82 1.82 0 0 0-.87 1.56 1.68 1.68 0 0 0 .7 1.42 13.94 13.94 0 0 0 3 1.37q2.29.85 2.92 1.15a8.7 8.7 0 0 1 1.66 1.17 4.07 4.07 0 0 1 1 3.22 5.43 5.43 0 0 1-2 4.42 8.14 8.14 0 0 1-5.34 1.63 16.77 16.77 0 0 1-2.77-.24 9.75 9.75 0 0 1-2.31-.63q-.82-.45-.82-.84zM200.39 4.51a1.88 1.88 0 0 1 .13-.5l1.24-3.65h1.46l-.07.21a.25.25 0 0 0 .17.27 3.52 3.52 0 0 0 .86.06h10a2.74 2.74 0 0 0 .82-.08.78.78 0 0 0 .36-.46h1.54l-1.54 4.51h-.91c-.38 0-.57-.11-.57-.33l.12-.24V4q0-1.23-2.29-1.23a2.75 2.75 0 0 0-1.54.29 1.43 1.43 0 0 0-.38 1.18v11.35a1.53 1.53 0 0 0 .26 1.05 1.46 1.46 0 0 0 1 .25h1.3a.6.6 0 0 1 .4.14.37.37 0 0 1 .14.35l-.05.25-.41 1.27h-8.21a.43.43 0 0 1-.29-.17.48.48 0 0 1-.16-.32l.08-.43.32-1.05h1.49a1 1 0 0 0 .88-.38 2.44 2.44 0 0 0 .26-1.3V4.44a2 2 0 0 0-.31-1.33 2.11 2.11 0 0 0-1.39-.31 3.74 3.74 0 0 0-2 .45 3 3 0 0 0-1.1 1.61h-1.08q-.54 0-.53-.35zM216.58 9.93a9.43 9.43 0 0 1 2.48-6.78 8.54 8.54 0 0 1 6.49-2.61 8.36 8.36 0 0 1 6.35 2.59 9.36 9.36 0 0 1 2.46 6.72 9.48 9.48 0 0 1-2.48 6.78 9.13 9.13 0 0 1-12.8 0 9.35 9.35 0 0 1-2.5-6.7zm3.4-.16a8.67 8.67 0 0 0 1.4 5.29 4.71 4.71 0 0 0 4 1.87 4.85 4.85 0 0 0 4.08-1.86 8.54 8.54 0 0 0 1.43-5.3 8.87 8.87 0 0 0-1.4-5.35 4.65 4.65 0 0 0-4-1.9 4.82 4.82 0 0 0-4.05 1.94A8.55 8.55 0 0 0 220 9.77zM235.85 18.42l.08-.43.36-1h.54a1 1 0 0 0 .88-.39 2.48 2.48 0 0 0 .26-1.31v-11a1.65 1.65 0 0 0-.28-1.1 1.27 1.27 0 0 0-1-.32h-.28c-.34 0-.51-.15-.51-.45v-.25l.44-1.27h7.54a13.42 13.42 0 0 1 2.78.22 5.38 5.38 0 0 1 2 1 2.91 2.91 0 0 1 1.07 2.47 3.08 3.08 0 0 1-.9 2.44 9.86 9.86 0 0 1-1.44 1.1q-.54.31-1.65.82l-.38.2c.27.45.58.92.92 1.4l1.88 2.65a29.89 29.89 0 0 0 2.14 2.8 2.85 2.85 0 0 0 1.43 1 3.45 3.45 0 0 1 .8.22.35.35 0 0 1 .12.31.73.73 0 0 1-.05.3l-.36 1.17h-3.59a1.57 1.57 0 0 1-.7-.09 2.25 2.25 0 0 1-.42-.71q-.28-.62-1.19-2.22t-1.92-3.25l-1-1.62q-.57-.78-.95-.78a1.53 1.53 0 0 0-.42.07q-.23.07-1.07.41v4.9a1.57 1.57 0 0 0 .26 1.06 1.48 1.48 0 0 0 1 .26h.83a.61.61 0 0 1 .4.14.36.36 0 0 1 .14.34l-.05.25-.41 1.25h-6.83a.46.46 0 0 1-.3-.16.46.46 0 0 1-.17-.43zm5.1-9.6a17.21 17.21 0 0 0 4.24-1.89 2.49 2.49 0 0 0 1.25-2 1.79 1.79 0 0 0-.84-1.57 4.09 4.09 0 0 0-2.31-.57 4.17 4.17 0 0 0-1.84.28 1.1 1.1 0 0 0-.45 1.06zM253.18 18.42l.08-.41.36-1.08h.51a1 1 0 0 0 .88-.38 2.47 2.47 0 0 0 .26-1.32v-11a1.64 1.64 0 0 0-.27-1.11 1.27 1.27 0 0 0-1-.32h-.3c-.34 0-.51-.15-.51-.45l.05-.25.4-1.2h12.26q.95 0 .95.51l-.09.41-1 3h-.9c-.41 0-.62-.14-.62-.41l.05-.29v-.36c0-.38-.24-.64-.71-.8a9.22 9.22 0 0 0-2.5-.23 6.83 6.83 0 0 0-2.32.25 1.07 1.07 0 0 0-.54 1.09v3.37h5.4c.47 0 .7.15.7.45l-.08.44-.33.95a.75.75 0 0 1-.78.54l-.54-.06-2.51-.32-1.08-.09a.71.71 0 0 0-.6.22 1.56 1.56 0 0 0-.16.86v4.86a3.75 3.75 0 0 0 .09 1q.08.26.61.53a6.69 6.69 0 0 0 2.44.27 8 8 0 0 0 3.26-.51 4.57 4.57 0 0 0 1.92-2h.84q.67 0 .67.51l-.08.38-1.36 3.92h-1.43q0-.36-.22-.45a3.26 3.26 0 0 0-1-.09h-10.34a.45.45 0 0 1-.3-.17.47.47 0 0 1-.16-.26z"/></g></symbol><symbol viewBox="-7872.582 -22998.375 180.905 180.344" id="soil_association_logo"><defs><style>.rcls-1{fill:#313639}</style></defs><g id="rGroup_968" data-name="Group 968" transform="translate(-7872.682 -22998.451)"><path id="rPath_2664" data-name="Path 2664" class="rcls-1" d="M24.873 41.066a20.8 20.8 0 0 1 .918 5.815l-1.836.306a20.576 20.576 0 0 0-.918-5.509c-1.224-3.979-3.367-6.121-6.427-5.2a4.246 4.246 0 0 0-2.449 2.142c-1.224 2.449-.612 5.815-1.224 8.57a5.909 5.909 0 0 1-3.673 3.979c-3.673 1.221-6.734-1.227-7.652-4.594A11.95 11.95 0 0 1 1 42.29l1.836-.306a9.1 9.1 0 0 0 .612 3.673c.918 2.755 2.755 4.285 5.509 3.673 1.836-.612 2.449-1.836 2.755-3.673.306-2.142 0-4.9.612-7.04a5.748 5.748 0 0 1 3.976-3.979c4.288-1.53 7.349 2.143 8.573 6.428z" transform="translate(1.855 70.49)"/><path id="rPath_2665" data-name="Path 2665" class="rcls-1" d="M23.361 35.682c0 5.815-3.673 9.182-11.631 9.182S.1 41.5.1 35.682c0-5.509 3.673-9.182 11.631-9.182 7.957.306 11.63 3.673 11.63 9.182zm-21.731 0c0 4.285 2.755 7.04 9.794 7.04 7.346 0 9.794-2.755 9.794-7.04 0-3.979-2.755-7.04-9.794-6.733-7.039 0-9.794 2.751-9.794 6.733z" transform="translate(0 54.449)"/><path id="rPath_2666" data-name="Path 2666" class="rcls-1" d="M27.91 18.924l-5.2 11.018L2.2 20.455l.918-1.836 18.976 8.57 4.285-9.489z" transform="translate(4.327 36.315)"/><path id="rPath_2667" data-name="Path 2667" class="rcls-1" d="M31.031 21.385L24.6 17.1l-6.73 6.122 3.367 6.733-1.53 1.224L9.3 10.673 12.973 7l19.588 12.855zM12.973 9.449l-1.53 1.53 5.509 10.712 6.121-5.509z" transform="translate(18.958 14.266)"/><path id="rPath_2668" data-name="Path 2668" class="rcls-1" d="M28.013 25.761A19.454 19.454 0 0 1 22.5 27.6l-.612-1.836a19.588 19.588 0 0 0 5.2-1.53c3.673-1.836 5.509-4.285 4.285-7.04a4.094 4.094 0 0 0-2.449-2.142c-2.449-.918-5.815.306-8.57 0a5.761 5.761 0 0 1-4.591-3.061c-1.53-3.367.306-6.733 3.367-8.264A9.226 9.226 0 0 1 23.116 2.5l.918 1.53a7.3 7.3 0 0 0-3.673 1.224c-2.755 1.224-3.979 3.367-2.755 5.815.918 1.836 2.449 2.142 4.285 2.142 2.142 0 4.591-.612 7.04-.306a4.793 4.793 0 0 1 4.285 3.367c2.143 3.98-.916 7.347-5.203 9.489z" transform="translate(31.158 4.993)"/><path id="rPath_2669" data-name="Path 2669" class="rcls-1" d="M30.121 24.173a19.067 19.067 0 0 1-5.815.306v-1.836a11.57 11.57 0 0 0 5.509-.306c3.979-.918 6.427-2.755 5.815-5.815a4.457 4.457 0 0 0-1.836-2.755c-2.142-1.53-5.509-1.224-8.264-2.142a5.057 5.057 0 0 1-3.367-3.979C21.551 3.973 24 1.218 27.672.606A23.272 23.272 0 0 1 31.957.3v1.836h-3.673c-2.755.612-4.591 2.449-4.285 4.9.306 1.836 1.836 2.449 3.367 3.061 2.142.612 4.591.612 6.733 1.53a5.077 5.077 0 0 1 3.367 4.285c1.225 4.588-2.754 7.343-7.345 8.261z" transform="translate(45.272 .46)"/><path id="rPath_2670" data-name="Path 2670" class="rcls-1" d="M37.214 23.408c-5.815-.612-8.57-4.591-7.958-12.549C30.175 2.9 33.847-.465 39.357.147s8.57 4.591 7.958 12.549c-.915 7.958-4.592 11.325-10.101 10.712zm2.143-21.73c-3.979-.306-7.04 1.836-7.958 9.182-.612 7.346 1.836 10.1 5.815 10.406s7.04-1.836 7.958-9.182c.612-7.04-1.837-10.1-5.815-10.406z" transform="translate(59.909)"/><path id="rPath_2671" data-name="Path 2671" class="rcls-1" d="M54.913 9.623c-.306-2.449-1.53-3.673-3.979-4.9-3.979-1.53-7.958.306-10.406 6.427-2.755 6.427-1.224 10.1 2.755 11.937a13.862 13.862 0 0 0 4.9.918v1.836a16.107 16.107 0 0 1-5.513-1.221c-5.2-2.142-7.346-6.733-3.979-14.385s8.57-9.182 13.161-7.04c3.367 1.53 4.591 3.367 5.2 6.121z" transform="translate(76.184 4.604)"/><path id="rPath_2672" data-name="Path 2672" class="rcls-1" d="M54.2 31.037l3.979-6.427-6.121-6.733-6.733 3.367-1.225-1.532L64.913 9l3.367 3.979-12.856 19.588zm11.631-18.058l-1.53-1.53-10.713 5.509 5.512 6.121z" transform="translate(90.669 18.387)"/><path id="rPath_2673" data-name="Path 2673" class="rcls-1" d="M71.549 28.3l-3.367-6.121-18.364 9.791-.918-1.836 18.364-9.794-3.364-6.122 1.53-.918 7.652 14.385z" transform="translate(100.561 27.248)"/><path id="rPath_2674" data-name="Path 2674" class="rcls-1" d="M51.512 34.908c-.306-5.815 3.367-9.182 11.324-9.794 7.958-.306 11.937 2.755 12.243 8.57.306 5.509-3.061 9.182-11.324 9.794-7.955.306-11.937-2.754-12.243-8.57zm21.731-1.224c-.306-4.285-3.061-6.733-10.406-6.427s-9.794 3.367-9.488 7.346 3.061 6.733 10.406 6.427 9.794-3.061 9.488-7.346z" transform="translate(105.907 51.55)"/><path id="rPath_2675" data-name="Path 2675" class="rcls-1" d="M50.612 47.485l22.037-7.04-18.364-5.509.615-1.836 21.731 6.427-.612 1.836-22.04 7.037 18.364 5.509-.612 1.836L50 49.322z" transform="translate(102.827 68.049)"/><path id="rPath_2676" data-name="Path 2676" class="rcls-1" d="M11.1 67.116A56.168 56.168 0 0 1 67.416 10.8v4.285A51.661 51.661 0 0 0 15.691 66.81a51.661 51.661 0 0 0 51.725 51.725 51.661 51.661 0 0 0 51.726-51.725 51.661 51.661 0 0 0-51.726-51.725V10.8a56.168 56.168 0 0 1 56.316 56.316 56.168 56.168 0 0 1-56.316 56.316C36.2 123.739 11.1 98.335 11.1 67.116z" transform="translate(22.667 22.097)"/><path id="rPath_2677" data-name="Path 2677" class="rcls-1" d="M15.449 85.268A9.206 9.206 0 0 1 13 78.535c0-5.509 3.061-11.324 7.958-16.528 5.509-5.815 11.631-8.264 14.691-9.794 0-3.061.306-6.733.306-10.1.612-12.549 5.815-28.464 22.645-30.607a13.725 13.725 0 0 1 3.367-.306c9.182 0 15 4.9 18.058 7.652l-3.061 3.367c-2.755-2.449-7.346-6.427-14.691-6.427a8.474 8.474 0 0 0-2.755.306c-13.467 1.53-17.752 14.385-18.67 26.016-1.224 17.14.918 31.831-7.652 41.319-3.061 3.367-6.427 5.2-10.1 5.2a9.031 9.031 0 0 1-7.652-3.367zm8.876-19.894c-4.285 4.285-6.733 9.794-6.733 13.161a4.879 4.879 0 0 0 1.224 3.673c1.53 1.53 2.755 2.142 3.979 2.142 1.53 0 3.979-.918 6.427-3.673 4.591-4.591 5.509-12.549 5.815-22.955a27.019 27.019 0 0 0-10.712 7.652z" transform="translate(26.583 22.921)"/><path id="rPath_2678" data-name="Path 2678" class="rcls-1" d="M63.385 101.353zm-2.142-4.285c3.979-1.836 12.549-6.427 14.079-11.324a22.981 22.981 0 0 0 1.224-7.344c0-9.488-6.733-16.834-14.385-22.037-14.079-9.488-27.852-15.3-31.831-27.24a20.8 20.8 0 0 1-.918-5.815c-.306-5.2 3.367-9.182 8.264-10.1a3.882 3.882 0 0 1 1.836-.306c7.346.306 12.855 7.652 15.609 16.528a36.072 36.072 0 0 1 1.53 10.712c0 2.755-.306 5.2-.306 6.733 2.755 1.836 5.509 3.367 8.57 5.509 8.57 5.509 16.528 14.079 16.528 26.016a31.822 31.822 0 0 1-1.53 8.876c-2.755 7.958-12.243 11.937-16.528 14.079l-2.142-4.285zM39.512 17.8h-.918C35.227 18.715 34 19.94 34 23.306a31.83 31.83 0 0 0 .612 4.591c1.53 6.121 8.264 11.018 16.834 16.528 0-1.224.306-2.449.306-3.979a36.692 36.692 0 0 0-1.224-9.488C48.082 23 42.879 17.8 39.512 17.8z" transform="translate(60.366 26.424)"/><path id="rPath_2679" data-name="Path 2679" class="rcls-1" d="M17.491 53.506C13.512 48.915 12.9 42.182 12.9 37.285A16.263 16.263 0 0 1 13.206 33l4.591.306c0 .918-.306 2.449-.306 3.979 0 4.591.918 10.406 3.367 13.161a20.531 20.531 0 0 0 16.222 7.346c5.2 0 11.018-1.836 15.915-4.285 13.773-6.733 24.485-14.385 35.2-14.385a11.9 11.9 0 0 1 4.591.612c6.427 1.53 10.712 5.2 10.712 10.712a15.362 15.362 0 0 1-.612 3.673c-1.836 5.815-8.264 7.958-15 7.958a37.389 37.389 0 0 1-7.958-.918A41.96 41.96 0 0 1 64.013 53.2c-2.755 1.53-5.815 3.061-8.876 4.591a38.466 38.466 0 0 1-17.752 4.9c-7.04 0-14.079-2.755-19.894-9.182zm63.662 2.755a27.3 27.3 0 0 0 6.733.918c5.815 0 9.794-2.142 10.406-4.591a7.606 7.606 0 0 0 .308-2.448c0-2.755-1.53-4.591-7.04-6.121a12.555 12.555 0 0 0-3.367-.306c-5.509 0-11.631 2.755-19.282 6.733a32.6 32.6 0 0 0 12.243 5.815z" transform="translate(26.377 67.843)"/><path id="rPath_2680" data-name="Path 2680" class="rcls-1" d="M10.161 63.51c-4.285-4.285-3.979-9.182 1.836-15s10.712-5.815 15-1.836c4.285 4.285 3.979 9.182-1.836 15-5.818 5.509-11.021 5.815-15 1.836zm13.773-14.079c-1.836-1.836-4.591-2.142-8.876 2.142-4.591 4.591-3.979 7.04-2.142 8.876s4.591 2.142 9.182-2.142c4.284-4.285 3.672-7.04 1.836-8.876z" transform="translate(14.731 90.283)"/><path id="rPath_2681" data-name="Path 2681" class="rcls-1" d="M22.9 73.11l.306-9.182a6.69 6.69 0 0 1-1.53-.918l-.918-.612-4.285 7.04-3.673-2.144L23.818 47.4c1.224.612 3.979 1.836 6.121 2.755 4.285 2.449 6.733 6.121 3.979 10.712a6.6 6.6 0 0 1-6.733 3.673v10.406zm5.2-19.282c-.612-.306-1.53-.612-2.142-.918l-3.673 6.733 1.224.612c2.449 1.224 5.2 1.836 6.733-.918 1.228-2.755-.608-4.591-2.142-5.51z" transform="translate(26.171 97.517)"/><path id="rPath_2682" data-name="Path 2682" class="rcls-1" d="M35.757 58.552c-.612-2.449-2.142-3.061-3.673-3.673-3.673-.918-5.815 1.836-6.733 6.427-1.224 4.9-.306 8.264 3.367 8.876a11.482 11.482 0 0 0 3.061.306l.921-3.978-3.367-.918 1.224-3.367 7.04 1.53-2.758 10.713a19.963 19.963 0 0 1-7.346-.612c-5.509-1.224-8.57-5.509-6.733-13.773C22.6 52.125 27.8 49.676 33 50.9c3.979.918 5.509 2.755 6.121 5.509z" transform="translate(41.472 104.117)"/><path id="rPath_2683" data-name="Path 2683" class="rcls-1" d="M40.967 73.843l-1.53-6.121-6.733.306-1.224 6.427H27.5l4.285-22.649 7.652-.306 6.121 22.343zm-4.591-18.67h-1.224l-1.53 8.876 5.2-.306z" transform="translate(56.462 105.966)"/><path id="rPath_2684" data-name="Path 2684" class="rcls-1" d="M53.9 72.355L39.515 61.031l4.9 14.385-3.675 1.224-7.04-21.425 3.979-1.224 14.385 11.631-5.2-15L50.84 49.4l7.04 21.425z" transform="translate(69.238 101.638)"/><path id="rPath_2685" data-name="Path 2685" class="rcls-1" d="M55.421 47.857c-2.449-.918-3.673 0-5.2 1.224-2.449 2.449-1.224 5.815 1.836 9.182 3.367 3.673 6.733 4.591 9.488 2.142a14.387 14.387 0 0 0 2.755-3.672l3.061 1.53a10.875 10.875 0 0 1-3.367 4.9c-4.285 3.979-9.182 4.285-15.3-1.53-5.815-5.815-5.2-11.324-1.224-15.3 2.755-2.755 5.2-3.061 7.958-2.449z" transform="translate(91.285 89.714)"/><path id="rPath_2686" data-name="Path 2686" class="rcls-1" d="M43.73 24.888l-1.53-1.224L55.055 5.3l1.836 1.224z" transform="translate(86.754 10.763)"/><path id="rPath_2687" data-name="Path 2687" class="rcls-1" d="M51.312 29.27l-.612-2.143L72.125 20.7l.612 2.142z" transform="translate(104.27 42.497)"/><path id="rRectangle_1244" data-name="Rectangle 1244" class="rcls-1" transform="rotate(-32.113 319.63 -142.326)" d="M0 0h4.285v22.649H0z"/><path id="rRectangle_1245" data-name="Rectangle 1245" class="rcls-1" transform="rotate(-76.561 45.69 33.505)" d="M0 0h2.142v22.649H0z"/></g></symbol><symbol viewBox="-18522.164 -23561.404 19.328 17.809" id="ui_burger"><defs><style>.sa{fill:none;stroke:#313639;stroke-width:2px}</style></defs><g transform="translate(-18882 -23599)"><path class="sa" d="M360.938 38.596h17.125M360.938 46.5h17.125M360.938 54.404h17.125M378.5 38.5l-18 16M360.5 38.5l18 16"/></g></symbol></svg>