<svg xmlns="http://www.w3.org/2000/svg" viewBox="0 0 9.68 12" width="9.68" height="12"><title>icon_pinterest</title><path fill="#fff" d="M0 4.47a4 4 0 0 1 .2-1.25A4.37 4.37 0 0 1 .84 2a5 5 0 0 1 1-1A4.64 4.64 0 0 1 3.31.26 6.32 6.32 0 0 1 5.16 0 4.91 4.91 0 0 1 7 .34a4.34 4.34 0 0 1 1.43.91 4.13 4.13 0 0 1 .9 1.31 3.75 3.75 0 0 1 .33 1.53A5.5 5.5 0 0 1 8.6 7.58 3.37 3.37 0 0 1 5.82 9a2.35 2.35 0 0 1-1.09-.3A1.61 1.61 0 0 1 4 8.08l-.51 2a6.54 6.54 0 0 1-1 2H2a10.59 10.59 0 0 1-.06-1.12 5.17 5.17 0 0 1 .14-1.27L3 5.74a2.47 2.47 0 0 1-.23-1.14 2.07 2.07 0 0 1 .41-1.31 1.23 1.23 0 0 1 1-.53.9.9 0 0 1 .73.3 1.15 1.15 0 0 1 .25.76 2.52 2.52 0 0 1-.11.7q-.14.46-.31 1t-.27.87v.3a1.05 1.05 0 0 0 .26.69 1.14 1.14 0 0 0 .92.42 1.86 1.86 0 0 0 1.64-1.14A5.42 5.42 0 0 0 7.92 4a2.68 2.68 0 0 0-.79-2A3 3 0 0 0 5 1.18a3.45 3.45 0 0 0-2.59 1 3.38 3.38 0 0 0-1 2.44 2.18 2.18 0 0 0 .48 1.42.42.42 0 0 1 .11.3.54.54 0 0 1 0 .11L1.81 7a.26.26 0 0 1-.14.18.27.27 0 0 1-.22 0 2.09 2.09 0 0 1-1.08-1A3.77 3.77 0 0 1 0 4.47z"/></svg>