<svg xmlns="http://www.w3.org/2000/svg" viewBox="-1356.896 -19917.895 43.392 43.391" width="43.392" height="43.391"><defs><style>.oa{fill:#256a37}</style></defs><g transform="translate(-1392 -19953)"><path class="oa" d="M56.804 38.358a18.442 18.442 0 1 1-18.446 18.446 18.454 18.454 0 0 1 18.446-18.446m0-3.254a21.7 21.7 0 1 0 21.7 21.7 21.7 21.7 0 0 0-21.7-21.7z"/><path class="oa" d="M56.8 69.253a12.464 12.464 0 0 1-11.477-7.594 1.624 1.624 0 1 1 2.994-1.258 9.192 9.192 0 0 0 17.14-.521 1.633 1.633 0 1 1 3.081 1.085A12.458 12.458 0 0 1 56.8 69.253z"/><circle class="oa" cx="2.365" cy="2.365" r="2.365" transform="translate(46.82 47.102)"/><circle class="oa" cx="2.365" cy="2.365" r="2.365" transform="translate(62.05 46.82)"/></g></svg>