<svg xmlns="http://www.w3.org/2000/svg" viewBox="0 0 11.99 12" width="11.99" height="12"><title>icon_instagram</title><path fill="#fff" d="M0 8.33V1.34A1.28 1.28 0 0 1 .32.48 1.35 1.35 0 0 1 1.14 0h9.46a1.4 1.4 0 0 1 .93.34 1.27 1.27 0 0 1 .45.85V10.63A1.38 1.38 0 0 1 10.79 12H1.36a1.36 1.36 0 0 1-.89-.32 1.23 1.23 0 0 1-.45-.8 1.55 1.55 0 0 1 0-.22Q0 9.88 0 8.33zm1.47 2.22a.5.5 0 0 0 .35.14h8.3a.45.45 0 0 0 .34-.14.49.49 0 0 0 .13-.35V7.67 5h-1a4.24 4.24 0 0 1 .12 1 3.57 3.57 0 0 1-.27 1.3A3.61 3.61 0 0 1 8 9.06a3.66 3.66 0 0 1-1.93.62H6a3.69 3.69 0 0 1-3.26-2A3.67 3.67 0 0 1 2.31 6a4.09 4.09 0 0 1 .12-1h-1.1v5.2a.46.46 0 0 0 .14.35zm2.89-2.86A2.22 2.22 0 0 0 6 8.37a2.21 2.21 0 0 0 1.63-.68A2.27 2.27 0 0 0 8.3 6a2.27 2.27 0 0 0-.67-1.66A2.21 2.21 0 0 0 6 3.69a2.21 2.21 0 0 0-1.63.69A2.26 2.26 0 0 0 3.69 6a2.27 2.27 0 0 0 .67 1.69zm4.08-4.13a.45.45 0 0 0 .34.14h1.37a.44.44 0 0 0 .33-.14.47.47 0 0 0 .13-.34V1.8a.47.47 0 0 0-.13-.34.45.45 0 0 0-.34-.14H8.78a.45.45 0 0 0-.33.14.47.47 0 0 0-.13.34v1.41a.47.47 0 0 0 .12.35z"/></svg>