<svg xmlns="http://www.w3.org/2000/svg" viewBox="-1385.904 -18194 110.707 45.07" width="110.707" height="45.07"><defs><style>.ia{fill:#256a37}.ib{fill:none}</style></defs><g transform="translate(-1350.713 -18194)"><path class="ia" d="M2.602 45.071A37.732 37.732 0 0 1-35.191 7.278a2.656 2.656 0 0 1 2.637-2.637 2.656 2.656 0 0 1 2.637 2.637 32.537 32.537 0 0 0 48.796 28.163 2.629 2.629 0 1 1 2.6 4.57 37.547 37.547 0 0 1-18.877 5.06z"/><path class="ia" d="M37.758 45.071a38.1 38.1 0 0 1-18.914-5.027 2.629 2.629 0 1 1 2.6-4.57 32.537 32.537 0 0 0 48.8-28.16 2.656 2.656 0 0 1 2.637-2.637 2.656 2.656 0 0 1 2.637 2.637 37.857 37.857 0 0 1-18.914 32.731 37.645 37.645 0 0 1-18.846 5.026z"/><circle class="ib" cx="17.543" cy="17.543" r="17.543" transform="translate(2.637 2.672)"/><path class="ia" d="M20.18 40.359a20.18 20.18 0 1 1 20.18-20.18 20.2 20.2 0 0 1-20.18 20.18zm0-35.051a14.906 14.906 0 1 0 14.906 14.906A14.914 14.914 0 0 0 20.18 5.309z"/></g></svg>