<svg xmlns="http://www.w3.org/2000/svg" viewBox="-1381.616 -17515 103.832 44.785" width="103.832" height="44.785"><defs><style>.da{fill:#256a37}</style></defs><g transform="translate(-1381.616 -17514.9)"><path class="da" d="M20.981 37.919a13.971 13.971 0 1 1 13.971-13.971 13.987 13.987 0 0 1-13.971 13.971zm0-24.266a10.32 10.32 0 1 0 10.32 10.324 10.325 10.325 0 0 0-10.32-10.325z"/><path class="da" d="M77.497 44.684H26.165l.779-2.385a26.167 26.167 0 0 1 49.774 0zm-46.172-3.651h40.988a22.532 22.532 0 0 0-40.988 0z"/><path class="da" d="M51.819 27.842A13.971 13.971 0 1 1 65.79 13.871a13.987 13.987 0 0 1-13.971 13.971zm0-24.266a10.32 10.32 0 1 0 10.32 10.32 10.325 10.325 0 0 0-10.32-10.321zM82.462 37.919a13.971 13.971 0 1 1 13.971-13.971 13.987 13.987 0 0 1-13.971 13.971zm0-24.266a10.32 10.32 0 1 0 10.32 10.32 10.325 10.325 0 0 0-10.32-10.321zM41.961 44.685H0l3.578-3.188a26.183 26.183 0 0 1 34.805 0z"/><path class="da" d="M103.832 44.685H61.068l3.286-3.14a26.171 26.171 0 0 1 36.168 0z"/></g></svg>