<svg xmlns="http://www.w3.org/2000/svg" viewBox="0 0 11.87 10.36" width="11.87" height="10.36"><title>icon_googleplus</title><path fill="#fff" d="M.23 7.56A2 2 0 0 1 1 6.75a4 4 0 0 1 1.34-.5 9.24 9.24 0 0 1 1.16-.12 2.59 2.59 0 0 1-.29-.42.89.89 0 0 1-.15-.52.69.69 0 0 1 .06-.3l.09-.23h-.42A2 2 0 0 1 1.19 4a2.08 2.08 0 0 1-.57-1.46A2.48 2.48 0 0 1 1.46.73a2.94 2.94 0 0 1 1.2-.62A6 6 0 0 1 3.82 0h2.71l-.87.48h-.77L5 .5v.05l.07.08.08.07a2.15 2.15 0 0 1 .28.38 3.27 3.27 0 0 1 .23.52 2.7 2.7 0 0 1 .08.7 2.14 2.14 0 0 1-.29 1.17 3.25 3.25 0 0 1-.29.39l-.37.37a2 2 0 0 0-.21.29.65.65 0 0 0-.12.39.52.52 0 0 0 .12.35l.19.23.42.38a4.92 4.92 0 0 1 .75.78 2 2 0 0 1 .31 1.13 2.29 2.29 0 0 1-.86 1.76 3.89 3.89 0 0 1-2.58.82A3.22 3.22 0 0 1 .7 9.74 1.67 1.67 0 0 1 0 8.4a2 2 0 0 1 .23-.84zM1.7 9.3a2.76 2.76 0 0 0 1.67.48 2.38 2.38 0 0 0 1.5-.43 1.28 1.28 0 0 0 .5-1A1.32 1.32 0 0 0 5 7.4a8.51 8.51 0 0 0-1.1-.9h-.41L3 6.52a6.27 6.27 0 0 0-.86.19l-.29.12a1.72 1.72 0 0 0-.38.25 1.34 1.34 0 0 0-.32.41 1.25 1.25 0 0 0-.15.63 1.4 1.4 0 0 0 .7 1.18zm.42-5.88a2.24 2.24 0 0 0 .55.63 1.24 1.24 0 0 0 .77.26 1.41 1.41 0 0 0 1-.39 1.38 1.38 0 0 0 .24-.54v-.46a3.42 3.42 0 0 0-.43-1.62 1.8 1.8 0 0 0-.53-.64 1.41 1.41 0 0 0-.77-.24A1.3 1.3 0 0 0 2 .87a1.63 1.63 0 0 0-.31 1v.06a3.19 3.19 0 0 0 .42 1.49zm6.75-.32v2.3h.72V3.1h2.28v-.82H9.59V0h-.72v2.28H6.59v.82z"/></svg>