<svg xmlns="http://www.w3.org/2000/svg" viewBox="-1364.405 -19203 69.811 44.924" width="69.811" height="44.924"><defs><style>.la{fill:#256a37}.lb{fill:#f7f6f2}</style></defs><g transform="translate(-1364.405 -19203)"><g transform="translate(0 16.505)"><path class="la" d="M23.824 28.417A23.786 23.786 0 0 1 0 4.615v-.953l.842-.488A23.835 23.835 0 0 1 36.59 23.808v.953l-.842.488a23.786 23.786 0 0 1-11.924 3.168zM3.346 5.59a20.518 20.518 0 0 0 29.9 17.242A20.518 20.518 0 0 0 3.346 5.59z"/><path class="la" d="M45.986 28.417a24.015 24.015 0 0 1-11.923-3.169l-.842-.488v-.953A23.835 23.835 0 0 1 68.969 3.175l.842.488v.953a23.786 23.786 0 0 1-23.824 23.8zm-9.4-5.585a20.518 20.518 0 0 0 29.9-17.242 20.518 20.518 0 0 0-29.9 17.242z"/></g><g transform="translate(22.162)"><path class="lb" d="M12.743 1.928a22.161 22.161 0 0 0 0 38.385 22.161 22.161 0 0 0 0-38.385z"/><path class="la" d="M12.743 42.241l-.842-.488a23.836 23.836 0 0 1 0-41.266L12.743 0l.842.488a23.836 23.836 0 0 1 0 41.266zm0-38.363a20.491 20.491 0 0 0 0 34.484 20.491 20.491 0 0 0 0-34.484z"/></g></g></svg>