<svg xmlns="http://www.w3.org/2000/svg" viewBox="-1356.883 -16710.824 42.552 48.049" width="42.552" height="48.049"><defs><style>.ka{fill:#256a37}</style></defs><g transform="translate(-1356.893 -16710.824)"><path class="ka" d="M21.285 25.864l-.512-.163a13.376 13.376 0 0 1 0-25.561l.512-.14.512.163a13.376 13.376 0 0 1 0 25.561zm0-22.185a9.88 9.88 0 0 0 0 18.531 9.88 9.88 0 0 0 0-18.531z"/><path class="ka" d="M13.394 28.89A13.4 13.4 0 0 1 .357 12.524l.116-.512.4-.372a13.285 13.285 0 0 1 15.784-1.793 13.261 13.261 0 0 1 6.332 14.55l-.116.512-.4.372a13.176 13.176 0 0 1-9.079 3.609zM3.64 13.851a9.874 9.874 0 0 0 16.04 9.265 9.874 9.874 0 0 0-16.04-9.265z"/><path class="ka" d="M9.949 39.994A13.259 13.259 0 0 1 .87 36.409l-.4-.372-.116-.512a13.352 13.352 0 0 1 22.119-12.758l.4.372.116.512a13.293 13.293 0 0 1-6.332 14.55 13.475 13.475 0 0 1-6.708 1.793zm-6.309-5.8a9.874 9.874 0 0 0 16.039-9.263A9.874 9.874 0 0 0 3.64 34.198z"/><path class="ka" d="M21.285 48.049l-.512-.163a13.376 13.376 0 0 1 0-25.561l.512-.163.512.163a13.376 13.376 0 0 1 0 25.561zm0-22.185a9.88 9.88 0 0 0 0 18.531 9.88 9.88 0 0 0 0-18.531z"/><path class="ka" d="M32.623 39.995a13.4 13.4 0 0 1-13.037-16.366l.116-.512.4-.372a13.352 13.352 0 0 1 22.116 12.757l-.116.512-.4.372a13.218 13.218 0 0 1-9.079 3.609zm-9.754-15.039a9.874 9.874 0 0 0 16.04 9.265 9.874 9.874 0 0 0-16.04-9.265z"/><path class="ka" d="M29.178 28.89a13.259 13.259 0 0 1-9.079-3.585l-.4-.372-.116-.512a13.352 13.352 0 0 1 22.116-12.757l.4.372.116.512a13.293 13.293 0 0 1-6.332 14.55 13.475 13.475 0 0 1-6.705 1.792zm-6.309-5.773a9.874 9.874 0 0 0 16.04-9.265 9.874 9.874 0 0 0-16.04 9.265z"/></g></svg>