<svg xmlns="http://www.w3.org/2000/svg" viewBox="0 0 268.09 19.45" width="268.09" height="19.45"><title>ns_logo</title><g style="isolation:isolate" fill="#256a37"><path d="M0 4.51A1.88 1.88 0 0 1 .13 4L1.37.36h1.46l-.06.21a.25.25 0 0 0 .17.27A3.52 3.52 0 0 0 3.8.9h10a2.74 2.74 0 0 0 .82-.08.78.78 0 0 0 .38-.46h1.54L15 4.86h-.91q-.57 0-.57-.33l.05-.23v-.29q0-1.23-2.29-1.23a2.75 2.75 0 0 0-1.54.29 1.44 1.44 0 0 0-.38 1.18v11.34a1.53 1.53 0 0 0 .26 1.05 1.46 1.46 0 0 0 1 .25H12a.6.6 0 0 1 .4.14.37.37 0 0 1 .14.35l-.05.25-.49 1.28H3.82a.43.43 0 0 1-.29-.17.48.48 0 0 1-.16-.32l.08-.42.32-1.05h1.49a1 1 0 0 0 .88-.38 2.44 2.44 0 0 0 .26-1.3V4.44a2 2 0 0 0-.31-1.33A2.11 2.11 0 0 0 4.7 2.8a3.74 3.74 0 0 0-2 .45 3 3 0 0 0-1.1 1.61H.5q-.5 0-.5-.35zM17 18.42l.08-.4.33-1.09h.51a1 1 0 0 0 .88-.38 2.47 2.47 0 0 0 .26-1.33v-11a1.65 1.65 0 0 0-.26-1.07 1.33 1.33 0 0 0-1-.29h-.28a.46.46 0 0 1-.52-.44v-.25L17.43.9H24q.75 0 .75.49l-.08.44-.36 1h-1.13a1 1 0 0 0-.9.35 2.71 2.71 0 0 0-.28 1.4v2.87h8.13V4.22a1.63 1.63 0 0 0-.26-1.06 1.34 1.34 0 0 0-1-.29h-.79q-.51 0-.51-.45l.05-.25.45-1.27h6.49q.75 0 .75.49l-.08.44-.36 1h-.57a1 1 0 0 0-.89.36 2.61 2.61 0 0 0-.24 1.36v11a1.56 1.56 0 0 0 .27 1 1.32 1.32 0 0 0 1 .3h.3q.51.21.51.51v.25l-.41 1.22H28a.45.45 0 0 1-.3-.16.46.46 0 0 1-.17-.32l.08-.4.39-1.02h1a1 1 0 0 0 .88-.38 2.49 2.49 0 0 0 .26-1.33V9.43H22v6.15a1.57 1.57 0 0 0 .27 1.05 1.33 1.33 0 0 0 1 .3h.75q.51.21.51.51v.25l-.41 1.22h-6.7a.46.46 0 0 1-.3-.16.46.46 0 0 1-.12-.33zM36.81 18.42l.08-.41.36-1.08h.51a1 1 0 0 0 .88-.38 2.47 2.47 0 0 0 .26-1.32v-11a1.65 1.65 0 0 0-.28-1.09 1.27 1.27 0 0 0-1-.32h-.3c-.34 0-.51-.15-.51-.45l.05-.25.41-1.22h12.26q.95 0 .95.51l-.09.41-1 3h-.9q-.62 0-.62-.41l.05-.29v-.36c0-.38-.24-.64-.71-.8a9.22 9.22 0 0 0-2.5-.23 6.83 6.83 0 0 0-2.28.27 1.07 1.07 0 0 0-.54 1.09v3.35h5.41q.7 0 .7.45l-.08.44-.33.95a.75.75 0 0 1-.78.54l-.54-.06-2.5-.32-1.11-.08a.71.71 0 0 0-.6.22 1.55 1.55 0 0 0-.17.86v4.86a3.79 3.79 0 0 0 .09 1q.08.26.61.53a6.69 6.69 0 0 0 2.41.27 8 8 0 0 0 3.26-.51 4.57 4.57 0 0 0 1.92-2H51q.67 0 .67.51l-.08.38-1.36 3.92h-1.4q0-.36-.22-.45a3.25 3.25 0 0 0-1-.09H37.27a.45.45 0 0 1-.3-.17.47.47 0 0 1-.16-.27zM59.16 18.42l.08-.43.36-1h.57a1 1 0 0 0 .88-.39 2.48 2.48 0 0 0 .26-1.31v-11A1.65 1.65 0 0 0 61 3.16a1.33 1.33 0 0 0-1-.29l-.33-.05q-.51-.05-.51-.45v-.25L59.62.9h3.81a43.67 43.67 0 0 1 3.18 3.2q1.94 2.12 3.55 4.07t2.77 3.52V4.23a1.59 1.59 0 0 0-.27-1.06 1.3 1.3 0 0 0-1-.3h-.86a.53.53 0 0 1-.38-.16.47.47 0 0 1-.16-.34l.05-.25.41-1.22h6.08q.75 0 .75.49l-.11.41-.33 1.08h-.57a1 1 0 0 0-.89.36 2.6 2.6 0 0 0-.24 1.36v14.66h-2.35a6.72 6.72 0 0 0-.26-2.06 25.2 25.2 0 0 0-2.36-3.86 57.5 57.5 0 0 0-6.66-7.66v9.92a1.59 1.59 0 0 0 .22 1.07 1.45 1.45 0 0 0 1 .26h1q.51 0 .5.48l-.05.25-.37 1.25h-6.46a.46.46 0 0 1-.3-.16.46.46 0 0 1-.16-.33zM77.49 18.47l.05-.34.41-1.2h.24a1.78 1.78 0 0 0 1.35-.46 7.2 7.2 0 0 0 1-2L84.7 3.89l.49-1.29q.21-.62.33-1t.17-.7h2.06a1.79 1.79 0 0 1 .76.11 1 1 0 0 1 .35.54L94 15a7.66 7.66 0 0 0 .73 1.55.91.91 0 0 0 .76.31c.4 0 .59.14.59.41a.57.57 0 0 1-.05.28l-.41 1.32H89.1a2.52 2.52 0 0 1-.8-.08c-.12-.05-.18-.18-.18-.38a.73.73 0 0 1 .05-.32l.37-1.2h1.05q1.44 0 1.44-.78a5.29 5.29 0 0 0-.38-1.37l-1.34-3.64h-4.88l-1.08 3q-.3.83-.41 1.24a2.9 2.9 0 0 0-.11.71q0 .88 1 .88h.67q.62 0 .62.41v.25l-.42 1.32h-6.26a2.34 2.34 0 0 1-.76-.08.34.34 0 0 1-.19-.36zm7.63-9.31h3.44l-1.73-4.65zM94.9 4.51A1.88 1.88 0 0 1 95 4L96.27.36h1.46l-.07.21a.25.25 0 0 0 .17.27 3.52 3.52 0 0 0 .86.06h10a2.74 2.74 0 0 0 .82-.08.78.78 0 0 0 .36-.46h1.54l-1.51 4.5h-.9q-.57 0-.57-.33l.05-.23v-.29q0-1.23-2.29-1.23a2.75 2.75 0 0 0-1.54.29 1.44 1.44 0 0 0-.38 1.18v11.34a1.53 1.53 0 0 0 .26 1.05 1.46 1.46 0 0 0 1 .25h1.31a.6.6 0 0 1 .4.14.37.37 0 0 1 .14.35l-.05.25-.41 1.27h-8.2a.43.43 0 0 1-.29-.17.48.48 0 0 1-.16-.32l.08-.43.32-1.05h1.49a1 1 0 0 0 .88-.38 2.44 2.44 0 0 0 .26-1.3V4.44a2 2 0 0 0-.3-1.32 2.11 2.11 0 0 0-1.39-.31 3.74 3.74 0 0 0-2 .45 3 3 0 0 0-1.1 1.61H95.4q-.52-.01-.5-.36zM111.63 2.37l.05-.25.41-1.22h6.31q.75 0 .75.49l-.08.41-.36 1.08h-.88a1 1 0 0 0-.89.36 2.6 2.6 0 0 0-.24 1.36v8.52a6.39 6.39 0 0 0 .13 1.54 3.19 3.19 0 0 0 .85 1.21 3.62 3.62 0 0 0 2.6.73q2.06 0 2.72-.85a4.42 4.42 0 0 0 .82-1.47 7.71 7.71 0 0 0 .16-1.84V4.23a1.59 1.59 0 0 0-.27-1.05 1.31 1.31 0 0 0-1-.3h-.84a.52.52 0 0 1-.38-.16.47.47 0 0 1-.17-.34l.05-.25.43-1.23h6.33q.73 0 .73.49l-.08.41-.36 1.08h-.51a1 1 0 0 0-.89.36 2.6 2.6 0 0 0-.24 1.36V13q0 6.26-6.63 6.27a7.17 7.17 0 0 1-4.77-1.42 5 5 0 0 1-1.67-4.07V4.23a1.64 1.64 0 0 0-.26-1.07 1.36 1.36 0 0 0-1-.29l-.29-.05a1.09 1.09 0 0 1-.44-.13c-.09-.06-.11-.16-.09-.32zM129.83 18.42l.08-.43.36-1h.54a1 1 0 0 0 .88-.39 2.48 2.48 0 0 0 .26-1.31v-11a1.65 1.65 0 0 0-.28-1.1 1.27 1.27 0 0 0-1-.32h-.28q-.51 0-.51-.45v-.25l.44-1.27h7.54a13.43 13.43 0 0 1 2.78.22 5.39 5.39 0 0 1 2 1 2.91 2.91 0 0 1 1.07 2.47 3.08 3.08 0 0 1-.9 2.44 10 10 0 0 1-1.44 1.1q-.54.31-1.65.82l-.38.2c.27.45.58.92.92 1.4l1.88 2.65a29.57 29.57 0 0 0 2.14 2.8 2.85 2.85 0 0 0 1.43 1 3.5 3.5 0 0 1 .8.22.35.35 0 0 1 .12.31.73.73 0 0 1-.05.3l-.36 1.17h-3.59a1.57 1.57 0 0 1-.7-.09 2.24 2.24 0 0 1-.42-.71q-.28-.62-1.19-2.22t-1.92-3.25l-1-1.62q-.57-.78-.95-.78a1.54 1.54 0 0 0-.42.07q-.23.07-1.07.41v4.9a1.55 1.55 0 0 0 .26 1.06 1.48 1.48 0 0 0 1 .26h.78a.61.61 0 0 1 .4.14.36.36 0 0 1 .14.34l-.05.25-.41 1.25h-6.83a.46.46 0 0 1-.3-.16.46.46 0 0 1-.12-.43zm5.1-9.6a17.18 17.18 0 0 0 4.24-1.89 2.49 2.49 0 0 0 1.25-2 1.8 1.8 0 0 0-.84-1.57 4.09 4.09 0 0 0-2.31-.57 4.18 4.18 0 0 0-1.84.28 1.1 1.1 0 0 0-.49 1.06z"/><path d="M146.32 18.47l.05-.34.41-1.2h.22a1.78 1.78 0 0 0 1.35-.46 7.21 7.21 0 0 0 1-2l4.11-10.53.54-1.34q.21-.62.33-1t.17-.67h2.06a1.8 1.8 0 0 1 .76.11 1 1 0 0 1 .35.54L162.82 15a7.73 7.73 0 0 0 .73 1.55.91.91 0 0 0 .76.31c.4 0 .59.14.59.41a.57.57 0 0 1-.05.28l-.41 1.32h-6.51a2.52 2.52 0 0 1-.8-.08c-.12-.05-.18-.18-.18-.38a.73.73 0 0 1 .05-.32l.37-1.2h1.05q1.44 0 1.44-.78a5.29 5.29 0 0 0-.38-1.37l-1.34-3.64h-4.86l-1.08 3q-.3.83-.41 1.24a2.9 2.9 0 0 0-.11.71q0 .88 1 .88h.67c.41 0 .62.14.62.41v.25l-.42 1.32h-6.26a2.34 2.34 0 0 1-.76-.08.34.34 0 0 1-.21-.36zM154 9.16h3.44l-1.74-4.65zM165.61 18.42l.08-.41.36-1.08h.57a1 1 0 0 0 .88-.38 2.47 2.47 0 0 0 .26-1.32v-11a1.61 1.61 0 0 0-.3-1.07 1.22 1.22 0 0 0-1-.34h-.3c-.34 0-.51-.15-.51-.45v-.25L166.1.9h6.67q.75 0 .75.46l-.08.43-.34 1.07h-1.23a1 1 0 0 0-.92.33 2.85 2.85 0 0 0-.22 1.38v10.5a9.27 9.27 0 0 0 0 1.05 1.39 1.39 0 0 0 .44.57 4.81 4.81 0 0 0 2.56.38 6.73 6.73 0 0 0 3-.55 5.07 5.07 0 0 0 2-1.94h.78c.47 0 .7.15.7.46l-.08.38-1.34 4h-1.44q0-.36-.17-.45a2.12 2.12 0 0 0-.8-.09h-10.31a.45.45 0 0 1-.3-.17.47.47 0 0 1-.16-.29zM187.17 17.51a3.61 3.61 0 0 1 .16-.72l.92-2.78h1q.62 0 .63.47l-.07.33v.24q0 .81 1 1.3a6.39 6.39 0 0 0 2.74.49 4.64 4.64 0 0 0 2.93-.9 2.77 2.77 0 0 0 1.16-2.28 2.08 2.08 0 0 0-1-2 12.91 12.91 0 0 0-1.81-.8l-1.53-.57q-1.7-.63-2.36-.94a7.89 7.89 0 0 1-1.62-1.15 3.46 3.46 0 0 1-1-2.75A4.21 4.21 0 0 1 190 2a6.46 6.46 0 0 1 4.24-1.34 10.85 10.85 0 0 1 2.64.32l.54.07q.46 0 .7-.68l.13-.37 1.11.37q.41.13.41.45l-.08.34-1 2.77a21.45 21.45 0 0 0-2.55-1 6.65 6.65 0 0 0-1.9-.25 3.89 3.89 0 0 0-2.24.6 1.82 1.82 0 0 0-.87 1.56 1.68 1.68 0 0 0 .7 1.42 13.94 13.94 0 0 0 3 1.37q2.29.85 2.92 1.15a8.7 8.7 0 0 1 1.66 1.17 4.07 4.07 0 0 1 1 3.22 5.43 5.43 0 0 1-2 4.42 8.14 8.14 0 0 1-5.34 1.63 16.77 16.77 0 0 1-2.77-.24 9.75 9.75 0 0 1-2.31-.63q-.82-.45-.82-.84zM200.39 4.51a1.88 1.88 0 0 1 .13-.5l1.24-3.65h1.46l-.07.21a.25.25 0 0 0 .17.27 3.52 3.52 0 0 0 .86.06h10a2.74 2.74 0 0 0 .82-.08.78.78 0 0 0 .36-.46h1.54l-1.54 4.51h-.91c-.38 0-.57-.11-.57-.33l.12-.24V4q0-1.23-2.29-1.23a2.75 2.75 0 0 0-1.54.29 1.43 1.43 0 0 0-.38 1.18v11.35a1.53 1.53 0 0 0 .26 1.05 1.46 1.46 0 0 0 1 .25h1.3a.6.6 0 0 1 .4.14.37.37 0 0 1 .14.35l-.05.25-.41 1.27h-8.21a.43.43 0 0 1-.29-.17.48.48 0 0 1-.16-.32l.08-.43.32-1.05h1.49a1 1 0 0 0 .88-.38 2.44 2.44 0 0 0 .26-1.3V4.44a2 2 0 0 0-.31-1.33 2.11 2.11 0 0 0-1.39-.31 3.74 3.74 0 0 0-2 .45 3 3 0 0 0-1.1 1.61h-1.08q-.54 0-.53-.35zM216.58 9.93a9.43 9.43 0 0 1 2.48-6.78 8.54 8.54 0 0 1 6.49-2.61 8.36 8.36 0 0 1 6.35 2.59 9.36 9.36 0 0 1 2.46 6.72 9.48 9.48 0 0 1-2.48 6.78 9.13 9.13 0 0 1-12.8 0 9.35 9.35 0 0 1-2.5-6.7zm3.4-.16a8.67 8.67 0 0 0 1.4 5.29 4.71 4.71 0 0 0 4 1.87 4.85 4.85 0 0 0 4.08-1.86 8.54 8.54 0 0 0 1.43-5.3 8.87 8.87 0 0 0-1.4-5.35 4.65 4.65 0 0 0-4-1.9 4.82 4.82 0 0 0-4.05 1.94A8.55 8.55 0 0 0 220 9.77zM235.85 18.42l.08-.43.36-1h.54a1 1 0 0 0 .88-.39 2.48 2.48 0 0 0 .26-1.31v-11a1.65 1.65 0 0 0-.28-1.1 1.27 1.27 0 0 0-1-.32h-.28c-.34 0-.51-.15-.51-.45v-.25l.44-1.27h7.54a13.42 13.42 0 0 1 2.78.22 5.38 5.38 0 0 1 2 1 2.91 2.91 0 0 1 1.07 2.47 3.08 3.08 0 0 1-.9 2.44 9.86 9.86 0 0 1-1.44 1.1q-.54.31-1.65.82l-.38.2c.27.45.58.92.92 1.4l1.88 2.65a29.89 29.89 0 0 0 2.14 2.8 2.85 2.85 0 0 0 1.43 1 3.45 3.45 0 0 1 .8.22.35.35 0 0 1 .12.31.73.73 0 0 1-.05.3l-.36 1.17h-3.59a1.57 1.57 0 0 1-.7-.09 2.25 2.25 0 0 1-.42-.71q-.28-.62-1.19-2.22t-1.92-3.25l-1-1.62q-.57-.78-.95-.78a1.53 1.53 0 0 0-.42.07q-.23.07-1.07.41v4.9a1.57 1.57 0 0 0 .26 1.06 1.48 1.48 0 0 0 1 .26h.83a.61.61 0 0 1 .4.14.36.36 0 0 1 .14.34l-.05.25-.41 1.25h-6.83a.46.46 0 0 1-.3-.16.46.46 0 0 1-.17-.43zm5.1-9.6a17.21 17.21 0 0 0 4.24-1.89 2.49 2.49 0 0 0 1.25-2 1.79 1.79 0 0 0-.84-1.57 4.09 4.09 0 0 0-2.31-.57 4.17 4.17 0 0 0-1.84.28 1.1 1.1 0 0 0-.45 1.06zM253.18 18.42l.08-.41.36-1.08h.51a1 1 0 0 0 .88-.38 2.47 2.47 0 0 0 .26-1.32v-11a1.64 1.64 0 0 0-.27-1.11 1.27 1.27 0 0 0-1-.32h-.3c-.34 0-.51-.15-.51-.45l.05-.25.4-1.2h12.26q.95 0 .95.51l-.09.41-1 3h-.9c-.41 0-.62-.14-.62-.41l.05-.29v-.36c0-.38-.24-.64-.71-.8a9.22 9.22 0 0 0-2.5-.23 6.83 6.83 0 0 0-2.32.25 1.07 1.07 0 0 0-.54 1.09v3.37h5.4c.47 0 .7.15.7.45l-.08.44-.33.95a.75.75 0 0 1-.78.54l-.54-.06-2.51-.32-1.08-.09a.71.71 0 0 0-.6.22 1.56 1.56 0 0 0-.16.86v4.86a3.75 3.75 0 0 0 .09 1q.08.26.61.53a6.69 6.69 0 0 0 2.44.27 8 8 0 0 0 3.26-.51 4.57 4.57 0 0 0 1.92-2h.84q.67 0 .67.51l-.08.38-1.36 3.92h-1.43q0-.36-.22-.45a3.26 3.26 0 0 0-1-.09h-10.34a.45.45 0 0 1-.3-.17.47.47 0 0 1-.16-.26z"/></g></svg>