<svg xmlns="http://www.w3.org/2000/svg" viewBox="-7872.582 -22998.375 180.905 180.344" width="180.905" height="180.344"><defs><style>.rcls-1{fill:#313639}</style></defs><g id="rGroup_968" data-name="Group 968" transform="translate(-7872.682 -22998.451)"><path id="rPath_2664" data-name="Path 2664" class="rcls-1" d="M24.873 41.066a20.8 20.8 0 0 1 .918 5.815l-1.836.306a20.576 20.576 0 0 0-.918-5.509c-1.224-3.979-3.367-6.121-6.427-5.2a4.246 4.246 0 0 0-2.449 2.142c-1.224 2.449-.612 5.815-1.224 8.57a5.909 5.909 0 0 1-3.673 3.979c-3.673 1.221-6.734-1.227-7.652-4.594A11.95 11.95 0 0 1 1 42.29l1.836-.306a9.1 9.1 0 0 0 .612 3.673c.918 2.755 2.755 4.285 5.509 3.673 1.836-.612 2.449-1.836 2.755-3.673.306-2.142 0-4.9.612-7.04a5.748 5.748 0 0 1 3.976-3.979c4.288-1.53 7.349 2.143 8.573 6.428z" transform="translate(1.855 70.49)"/><path id="rPath_2665" data-name="Path 2665" class="rcls-1" d="M23.361 35.682c0 5.815-3.673 9.182-11.631 9.182S.1 41.5.1 35.682c0-5.509 3.673-9.182 11.631-9.182 7.957.306 11.63 3.673 11.63 9.182zm-21.731 0c0 4.285 2.755 7.04 9.794 7.04 7.346 0 9.794-2.755 9.794-7.04 0-3.979-2.755-7.04-9.794-6.733-7.039 0-9.794 2.751-9.794 6.733z" transform="translate(0 54.449)"/><path id="rPath_2666" data-name="Path 2666" class="rcls-1" d="M27.91 18.924l-5.2 11.018L2.2 20.455l.918-1.836 18.976 8.57 4.285-9.489z" transform="translate(4.327 36.315)"/><path id="rPath_2667" data-name="Path 2667" class="rcls-1" d="M31.031 21.385L24.6 17.1l-6.73 6.122 3.367 6.733-1.53 1.224L9.3 10.673 12.973 7l19.588 12.855zM12.973 9.449l-1.53 1.53 5.509 10.712 6.121-5.509z" transform="translate(18.958 14.266)"/><path id="rPath_2668" data-name="Path 2668" class="rcls-1" d="M28.013 25.761A19.454 19.454 0 0 1 22.5 27.6l-.612-1.836a19.588 19.588 0 0 0 5.2-1.53c3.673-1.836 5.509-4.285 4.285-7.04a4.094 4.094 0 0 0-2.449-2.142c-2.449-.918-5.815.306-8.57 0a5.761 5.761 0 0 1-4.591-3.061c-1.53-3.367.306-6.733 3.367-8.264A9.226 9.226 0 0 1 23.116 2.5l.918 1.53a7.3 7.3 0 0 0-3.673 1.224c-2.755 1.224-3.979 3.367-2.755 5.815.918 1.836 2.449 2.142 4.285 2.142 2.142 0 4.591-.612 7.04-.306a4.793 4.793 0 0 1 4.285 3.367c2.143 3.98-.916 7.347-5.203 9.489z" transform="translate(31.158 4.993)"/><path id="rPath_2669" data-name="Path 2669" class="rcls-1" d="M30.121 24.173a19.067 19.067 0 0 1-5.815.306v-1.836a11.57 11.57 0 0 0 5.509-.306c3.979-.918 6.427-2.755 5.815-5.815a4.457 4.457 0 0 0-1.836-2.755c-2.142-1.53-5.509-1.224-8.264-2.142a5.057 5.057 0 0 1-3.367-3.979C21.551 3.973 24 1.218 27.672.606A23.272 23.272 0 0 1 31.957.3v1.836h-3.673c-2.755.612-4.591 2.449-4.285 4.9.306 1.836 1.836 2.449 3.367 3.061 2.142.612 4.591.612 6.733 1.53a5.077 5.077 0 0 1 3.367 4.285c1.225 4.588-2.754 7.343-7.345 8.261z" transform="translate(45.272 .46)"/><path id="rPath_2670" data-name="Path 2670" class="rcls-1" d="M37.214 23.408c-5.815-.612-8.57-4.591-7.958-12.549C30.175 2.9 33.847-.465 39.357.147s8.57 4.591 7.958 12.549c-.915 7.958-4.592 11.325-10.101 10.712zm2.143-21.73c-3.979-.306-7.04 1.836-7.958 9.182-.612 7.346 1.836 10.1 5.815 10.406s7.04-1.836 7.958-9.182c.612-7.04-1.837-10.1-5.815-10.406z" transform="translate(59.909)"/><path id="rPath_2671" data-name="Path 2671" class="rcls-1" d="M54.913 9.623c-.306-2.449-1.53-3.673-3.979-4.9-3.979-1.53-7.958.306-10.406 6.427-2.755 6.427-1.224 10.1 2.755 11.937a13.862 13.862 0 0 0 4.9.918v1.836a16.107 16.107 0 0 1-5.513-1.221c-5.2-2.142-7.346-6.733-3.979-14.385s8.57-9.182 13.161-7.04c3.367 1.53 4.591 3.367 5.2 6.121z" transform="translate(76.184 4.604)"/><path id="rPath_2672" data-name="Path 2672" class="rcls-1" d="M54.2 31.037l3.979-6.427-6.121-6.733-6.733 3.367-1.225-1.532L64.913 9l3.367 3.979-12.856 19.588zm11.631-18.058l-1.53-1.53-10.713 5.509 5.512 6.121z" transform="translate(90.669 18.387)"/><path id="rPath_2673" data-name="Path 2673" class="rcls-1" d="M71.549 28.3l-3.367-6.121-18.364 9.791-.918-1.836 18.364-9.794-3.364-6.122 1.53-.918 7.652 14.385z" transform="translate(100.561 27.248)"/><path id="rPath_2674" data-name="Path 2674" class="rcls-1" d="M51.512 34.908c-.306-5.815 3.367-9.182 11.324-9.794 7.958-.306 11.937 2.755 12.243 8.57.306 5.509-3.061 9.182-11.324 9.794-7.955.306-11.937-2.754-12.243-8.57zm21.731-1.224c-.306-4.285-3.061-6.733-10.406-6.427s-9.794 3.367-9.488 7.346 3.061 6.733 10.406 6.427 9.794-3.061 9.488-7.346z" transform="translate(105.907 51.55)"/><path id="rPath_2675" data-name="Path 2675" class="rcls-1" d="M50.612 47.485l22.037-7.04-18.364-5.509.615-1.836 21.731 6.427-.612 1.836-22.04 7.037 18.364 5.509-.612 1.836L50 49.322z" transform="translate(102.827 68.049)"/><path id="rPath_2676" data-name="Path 2676" class="rcls-1" d="M11.1 67.116A56.168 56.168 0 0 1 67.416 10.8v4.285A51.661 51.661 0 0 0 15.691 66.81a51.661 51.661 0 0 0 51.725 51.725 51.661 51.661 0 0 0 51.726-51.725 51.661 51.661 0 0 0-51.726-51.725V10.8a56.168 56.168 0 0 1 56.316 56.316 56.168 56.168 0 0 1-56.316 56.316C36.2 123.739 11.1 98.335 11.1 67.116z" transform="translate(22.667 22.097)"/><path id="rPath_2677" data-name="Path 2677" class="rcls-1" d="M15.449 85.268A9.206 9.206 0 0 1 13 78.535c0-5.509 3.061-11.324 7.958-16.528 5.509-5.815 11.631-8.264 14.691-9.794 0-3.061.306-6.733.306-10.1.612-12.549 5.815-28.464 22.645-30.607a13.725 13.725 0 0 1 3.367-.306c9.182 0 15 4.9 18.058 7.652l-3.061 3.367c-2.755-2.449-7.346-6.427-14.691-6.427a8.474 8.474 0 0 0-2.755.306c-13.467 1.53-17.752 14.385-18.67 26.016-1.224 17.14.918 31.831-7.652 41.319-3.061 3.367-6.427 5.2-10.1 5.2a9.031 9.031 0 0 1-7.652-3.367zm8.876-19.894c-4.285 4.285-6.733 9.794-6.733 13.161a4.879 4.879 0 0 0 1.224 3.673c1.53 1.53 2.755 2.142 3.979 2.142 1.53 0 3.979-.918 6.427-3.673 4.591-4.591 5.509-12.549 5.815-22.955a27.019 27.019 0 0 0-10.712 7.652z" transform="translate(26.583 22.921)"/><path id="rPath_2678" data-name="Path 2678" class="rcls-1" d="M63.385 101.353zm-2.142-4.285c3.979-1.836 12.549-6.427 14.079-11.324a22.981 22.981 0 0 0 1.224-7.344c0-9.488-6.733-16.834-14.385-22.037-14.079-9.488-27.852-15.3-31.831-27.24a20.8 20.8 0 0 1-.918-5.815c-.306-5.2 3.367-9.182 8.264-10.1a3.882 3.882 0 0 1 1.836-.306c7.346.306 12.855 7.652 15.609 16.528a36.072 36.072 0 0 1 1.53 10.712c0 2.755-.306 5.2-.306 6.733 2.755 1.836 5.509 3.367 8.57 5.509 8.57 5.509 16.528 14.079 16.528 26.016a31.822 31.822 0 0 1-1.53 8.876c-2.755 7.958-12.243 11.937-16.528 14.079l-2.142-4.285zM39.512 17.8h-.918C35.227 18.715 34 19.94 34 23.306a31.83 31.83 0 0 0 .612 4.591c1.53 6.121 8.264 11.018 16.834 16.528 0-1.224.306-2.449.306-3.979a36.692 36.692 0 0 0-1.224-9.488C48.082 23 42.879 17.8 39.512 17.8z" transform="translate(60.366 26.424)"/><path id="rPath_2679" data-name="Path 2679" class="rcls-1" d="M17.491 53.506C13.512 48.915 12.9 42.182 12.9 37.285A16.263 16.263 0 0 1 13.206 33l4.591.306c0 .918-.306 2.449-.306 3.979 0 4.591.918 10.406 3.367 13.161a20.531 20.531 0 0 0 16.222 7.346c5.2 0 11.018-1.836 15.915-4.285 13.773-6.733 24.485-14.385 35.2-14.385a11.9 11.9 0 0 1 4.591.612c6.427 1.53 10.712 5.2 10.712 10.712a15.362 15.362 0 0 1-.612 3.673c-1.836 5.815-8.264 7.958-15 7.958a37.389 37.389 0 0 1-7.958-.918A41.96 41.96 0 0 1 64.013 53.2c-2.755 1.53-5.815 3.061-8.876 4.591a38.466 38.466 0 0 1-17.752 4.9c-7.04 0-14.079-2.755-19.894-9.182zm63.662 2.755a27.3 27.3 0 0 0 6.733.918c5.815 0 9.794-2.142 10.406-4.591a7.606 7.606 0 0 0 .308-2.448c0-2.755-1.53-4.591-7.04-6.121a12.555 12.555 0 0 0-3.367-.306c-5.509 0-11.631 2.755-19.282 6.733a32.6 32.6 0 0 0 12.243 5.815z" transform="translate(26.377 67.843)"/><path id="rPath_2680" data-name="Path 2680" class="rcls-1" d="M10.161 63.51c-4.285-4.285-3.979-9.182 1.836-15s10.712-5.815 15-1.836c4.285 4.285 3.979 9.182-1.836 15-5.818 5.509-11.021 5.815-15 1.836zm13.773-14.079c-1.836-1.836-4.591-2.142-8.876 2.142-4.591 4.591-3.979 7.04-2.142 8.876s4.591 2.142 9.182-2.142c4.284-4.285 3.672-7.04 1.836-8.876z" transform="translate(14.731 90.283)"/><path id="rPath_2681" data-name="Path 2681" class="rcls-1" d="M22.9 73.11l.306-9.182a6.69 6.69 0 0 1-1.53-.918l-.918-.612-4.285 7.04-3.673-2.144L23.818 47.4c1.224.612 3.979 1.836 6.121 2.755 4.285 2.449 6.733 6.121 3.979 10.712a6.6 6.6 0 0 1-6.733 3.673v10.406zm5.2-19.282c-.612-.306-1.53-.612-2.142-.918l-3.673 6.733 1.224.612c2.449 1.224 5.2 1.836 6.733-.918 1.228-2.755-.608-4.591-2.142-5.51z" transform="translate(26.171 97.517)"/><path id="rPath_2682" data-name="Path 2682" class="rcls-1" d="M35.757 58.552c-.612-2.449-2.142-3.061-3.673-3.673-3.673-.918-5.815 1.836-6.733 6.427-1.224 4.9-.306 8.264 3.367 8.876a11.482 11.482 0 0 0 3.061.306l.921-3.978-3.367-.918 1.224-3.367 7.04 1.53-2.758 10.713a19.963 19.963 0 0 1-7.346-.612c-5.509-1.224-8.57-5.509-6.733-13.773C22.6 52.125 27.8 49.676 33 50.9c3.979.918 5.509 2.755 6.121 5.509z" transform="translate(41.472 104.117)"/><path id="rPath_2683" data-name="Path 2683" class="rcls-1" d="M40.967 73.843l-1.53-6.121-6.733.306-1.224 6.427H27.5l4.285-22.649 7.652-.306 6.121 22.343zm-4.591-18.67h-1.224l-1.53 8.876 5.2-.306z" transform="translate(56.462 105.966)"/><path id="rPath_2684" data-name="Path 2684" class="rcls-1" d="M53.9 72.355L39.515 61.031l4.9 14.385-3.675 1.224-7.04-21.425 3.979-1.224 14.385 11.631-5.2-15L50.84 49.4l7.04 21.425z" transform="translate(69.238 101.638)"/><path id="rPath_2685" data-name="Path 2685" class="rcls-1" d="M55.421 47.857c-2.449-.918-3.673 0-5.2 1.224-2.449 2.449-1.224 5.815 1.836 9.182 3.367 3.673 6.733 4.591 9.488 2.142a14.387 14.387 0 0 0 2.755-3.672l3.061 1.53a10.875 10.875 0 0 1-3.367 4.9c-4.285 3.979-9.182 4.285-15.3-1.53-5.815-5.815-5.2-11.324-1.224-15.3 2.755-2.755 5.2-3.061 7.958-2.449z" transform="translate(91.285 89.714)"/><path id="rPath_2686" data-name="Path 2686" class="rcls-1" d="M43.73 24.888l-1.53-1.224L55.055 5.3l1.836 1.224z" transform="translate(86.754 10.763)"/><path id="rPath_2687" data-name="Path 2687" class="rcls-1" d="M51.312 29.27l-.612-2.143L72.125 20.7l.612 2.142z" transform="translate(104.27 42.497)"/><path id="rRectangle_1244" data-name="Rectangle 1244" class="rcls-1" transform="rotate(-32.113 319.63 -142.326)" d="M0 0h4.285v22.649H0z"/><path id="rRectangle_1245" data-name="Rectangle 1245" class="rcls-1" transform="rotate(-76.561 45.69 33.505)" d="M0 0h2.142v22.649H0z"/></g></svg>